<svg width="23" height="30" viewBox="0 0 23 30" fill="none" xmlns="http://www.w3.org/2000/svg">
<path fill-rule="evenodd" clip-rule="evenodd" d="M12.2549 5.37768H16.4504C19.6156 5.37768 22.1905 8.16516 22.1904 11.5914C22.1904 12.3799 22.0534 13.1341 21.8046 13.8284H0.576301C0.327479 13.1341 0.19043 12.3799 0.19043 11.5914C0.19043 8.16522 2.76536 5.37774 5.93043 5.37774H10.1259V4.99359C10.1259 2.2401 12.1953 0 14.7388 0V2.30467C13.3692 2.30467 12.2549 3.51088 12.2549 4.99354V5.37768ZM1.60969 18.5596V16.1331H20.7709V18.5596C20.7709 22.164 19.1387 25.2819 16.0508 27.5761C13.7941 29.2528 11.5533 29.8975 11.459 29.9241L11.1903 30L10.9216 29.9241C10.8273 29.8974 8.58649 29.2527 6.32988 27.5761C3.24189 25.2819 1.60969 22.164 1.60969 18.5596Z" fill="#01737E"/>
</svg>
