<svg width="22" height="30" viewBox="0 0 22 30" fill="none" xmlns="http://www.w3.org/2000/svg">
<path fill-rule="evenodd" clip-rule="evenodd" d="M3.2218 16.569C2.1318 15.6072 1.7194 14.2437 2.0708 12.9693C0.8012 12.2875 0 11.0661 0 9.70588C0 8.3457 0.8012 7.12423 2.0708 6.44241C1.7194 5.16812 2.1318 3.80453 3.2218 2.84276C4.31173 1.88106 5.85733 1.51729 7.3014 1.82718C8.07413 0.706882 9.45847 0 11 0C12.5415 0 13.9259 0.706941 14.6986 1.82723C16.1427 1.51718 17.6881 1.881 18.7782 2.84276C19.8683 3.80453 20.2807 5.16806 19.9292 6.44241C21.1989 7.12423 22 8.3457 22 9.70588C22 11.0661 21.1988 12.2875 19.9291 12.9693C20.2805 14.2436 19.8681 15.6072 18.7781 16.569C17.6882 17.5306 16.1428 17.8945 14.6985 17.5846C13.9258 18.7048 12.5415 19.4118 11 19.4118C9.45847 19.4118 8.07413 18.7048 7.3014 17.5845C5.85713 17.8948 4.3118 17.5308 3.2218 16.569ZM15 9.70588C15 7.75976 13.2056 6.17647 11 6.17647C8.7944 6.17647 7 7.75976 7 9.70588C7 11.652 8.7944 13.2353 11 13.2353C13.2056 13.2353 15 11.652 15 9.70588ZM10.9998 11.4706C12.1044 11.4706 12.9998 10.6805 12.9998 9.70588C12.9998 8.73126 12.1044 7.94118 10.9998 7.94118C9.89524 7.94118 8.9998 8.73126 8.9998 9.70588C8.9998 10.6805 9.89524 11.4706 10.9998 11.4706ZM11.9999 25.9456V21.1082C11.3502 21.1976 10.6733 21.2009 9.99988 21.1082V25.9456C8.77262 24.1455 6.53748 22.9412 3.98322 22.9412H0.999883V23.8088C0.999883 27.2281 4.14135 30 8.01655 30H13.9832C17.8584 30 20.9999 27.2281 20.9999 23.8088V22.9412H18.0166C15.4623 22.9412 13.2271 24.1455 11.9999 25.9456Z" fill="#01737E"/>
</svg>
