<svg width="30" height="30" viewBox="0 0 30 30" fill="none" xmlns="http://www.w3.org/2000/svg">
<path fill-rule="evenodd" clip-rule="evenodd" d="M29.4093 10.9813C30.0165 11.2539 30.1929 12.0324 29.7627 12.5401L28.2259 14.3535C27.9098 14.7266 27.9098 15.2735 28.2259 15.6465L29.7627 17.46C30.1929 17.9677 30.0165 18.7462 29.4094 19.0188L27.1881 20.016C26.7453 20.2148 26.5092 20.7028 26.6281 21.1733L27.208 23.468C27.3693 24.1064 26.8803 24.7238 26.2219 24.7128L23.7254 24.6714C23.2483 24.6635 22.8321 24.9938 22.7313 25.4602L22.2223 27.8176C22.0851 28.4526 21.3883 28.7904 20.8049 28.5046L18.5455 27.3979C18.1228 27.1909 17.6129 27.3066 17.3211 27.6759L15.7846 29.6201C15.3842 30.1267 14.6158 30.1267 14.2155 29.6201L12.679 27.6759C12.3871 27.3066 11.8772 27.1908 11.4545 27.3979L9.19513 28.5045C8.6117 28.7903 7.91492 28.4526 7.77779 27.8176L7.2687 25.4602C7.16798 24.9938 6.75175 24.6635 6.27465 24.6714L3.77817 24.7128C3.11978 24.7237 2.63074 24.1063 2.79206 23.4679L3.37191 21.1732C3.49081 20.7027 3.2547 20.2148 2.81196 20.016L0.590701 19.0187C-0.016425 18.7461 -0.192881 17.9676 0.237379 17.4599L1.77411 15.6465C2.09024 15.2735 2.09024 14.7266 1.77411 14.3535L0.237368 12.5401C-0.192889 12.0324 -0.0164387 11.2539 0.590679 10.9813L2.81198 9.98401C3.25471 9.78524 3.49081 9.29727 3.37191 8.82675L2.79207 6.53206C2.63074 5.89365 3.11978 5.27629 3.77817 5.28721L6.27466 5.3286C6.75176 5.33651 7.16798 5.00624 7.2687 4.53983L7.77779 2.18243C7.91492 1.54741 8.6117 1.20969 9.19513 1.49546L11.4545 2.60214C11.8773 2.80918 12.3871 2.69341 12.679 2.32412L14.2154 0.379958C14.6158 -0.126655 15.3842 -0.126652 15.7846 0.379964L17.3211 2.32417C17.6129 2.69347 18.1228 2.80924 18.5455 2.60219L20.8049 1.49552C21.3883 1.20975 22.0851 1.54747 22.2223 2.18249L22.7313 4.53989C22.8321 5.0063 23.2483 5.33657 23.7254 5.32866L26.2219 5.28727C26.8803 5.27635 27.3693 5.89371 27.208 6.53212L26.6281 8.82681C26.5092 9.29733 26.7453 9.78529 27.1881 9.98407L29.4093 10.9813ZM5.58686 15C5.58686 20.0573 9.8096 24.1717 15 24.1717C20.1905 24.1717 24.4132 20.0573 24.4132 15C24.4132 9.94275 20.1905 5.82834 15 5.82834C9.8096 5.82834 5.58686 9.94275 5.58686 15ZM20.3243 9.80939C23.2665 12.6761 23.2665 17.3239 20.3243 20.1906C17.3821 23.0574 12.6119 23.0574 9.66973 20.1906C6.72755 17.3239 6.72755 12.6761 9.66973 9.80939C12.6119 6.94269 17.3821 6.94269 20.3243 9.80939Z" fill="#01737E"/>
</svg>
