<svg width="31" height="30" viewBox="0 0 31 30" fill="none" xmlns="http://www.w3.org/2000/svg">
<path d="M30.3846 20.2266L28.1214 19.084L29.8623 18.6738C30.4113 18.5449 30.7394 18.0469 30.5921 17.5664L30.3243 16.6934C30.177 16.2129 29.6078 15.9258 29.0588 16.0547L24.3181 17.168L20.0394 15L24.3114 12.8379L29.0521 13.9512C29.6011 14.0801 30.1703 13.793 30.3176 13.3125L30.5854 12.4395C30.7327 11.959 30.4046 11.4609 29.8556 11.332L28.1147 10.9219L30.3779 9.7793C30.8734 9.52734 31.0408 8.97656 30.7595 8.54297L29.7217 6.97266C29.4337 6.53906 28.8043 6.39258 28.3088 6.63867L26.0456 7.78125L26.5143 6.25781C26.6617 5.77734 26.3336 5.2793 25.7845 5.15039L24.7868 4.91602C24.2378 4.78711 23.6686 5.07422 23.5213 5.55469L22.2491 9.70313L18.0441 11.8242V7.2832L21.6398 4.13672C22.0549 3.77344 22.0549 3.17578 21.6398 2.8125L20.8831 2.15039C20.468 1.78711 19.785 1.78711 19.3699 2.15039L18.0441 3.30469V0.9375C18.0441 0.421875 17.562 0 16.9727 0H14.8301C14.2408 0 13.7587 0.421875 13.7587 0.9375V3.30469L12.4396 2.15039C12.0245 1.78711 11.3415 1.78711 10.9264 2.15039L10.163 2.8125C9.7412 3.17578 9.7412 3.77344 10.163 4.13672L13.7587 7.2832V11.8242L9.55372 9.70313L8.2815 5.55469C8.13419 5.07422 7.56505 4.78711 7.01598 4.91602L6.0183 5.15039C5.46924 5.2793 5.14114 5.77734 5.28845 6.25781L5.75716 7.78125L3.49396 6.63867C2.99847 6.38672 2.36905 6.53906 2.08113 6.97266L1.04327 8.53711C0.75535 8.9707 0.929443 9.52148 1.42494 9.77344L3.68814 10.916L1.94721 11.3262C1.39146 11.4551 1.06336 11.9531 1.21067 12.4395L1.4785 13.3125C1.62581 13.793 2.19496 14.0801 2.74402 13.9512L7.4847 12.8379L11.7567 15L7.4847 17.1621L2.74402 16.0488C2.19496 15.9199 1.62581 16.207 1.4785 16.6875L1.21067 17.5605C1.06336 18.041 1.39146 18.5391 1.94052 18.668L3.68144 19.0781L1.41824 20.2266C0.922747 20.4785 0.75535 21.0293 1.03658 21.4629L2.07444 23.0332C2.36236 23.4668 2.99177 23.6133 3.48726 23.3672L5.75047 22.2246L5.28176 23.748C5.13445 24.2285 5.46254 24.7266 6.01161 24.8555L7.00929 25.0898C7.55835 25.2188 8.1275 24.9316 8.27481 24.4512L9.54702 20.3027L13.752 18.1816V22.7227L10.1563 25.8691C9.73451 26.2324 9.73451 26.8301 10.1563 27.1934L10.913 27.8555C11.3281 28.2187 12.0111 28.2187 12.4262 27.8555L13.7453 26.7012V29.0625C13.7453 29.5781 14.2274 30 14.8167 30H16.9593C17.5486 30 18.0307 29.5781 18.0307 29.0625V26.6953L19.3498 27.8496C19.7649 28.2129 20.4479 28.2129 20.863 27.8496L21.6197 27.1875C22.0348 26.8242 22.0348 26.2266 21.6197 25.8633L18.0441 22.7168V18.1758L22.2491 20.2969L23.5213 24.4453C23.6686 24.9258 24.2378 25.2129 24.7868 25.084L25.7845 24.8496C26.3336 24.7207 26.6617 24.2227 26.5143 23.7422L26.0456 22.2188L28.3088 23.3613C28.8043 23.6133 29.4337 23.4609 29.7217 23.0273L30.7595 21.457C31.0474 21.0293 30.88 20.4727 30.3846 20.2266Z" fill="#01737E"/>
</svg>
