<?xml version="1.0" standalone="no"?>
<!DOCTYPE svg PUBLIC "-//W3C//DTD SVG 20010904//EN"
 "http://www.w3.org/TR/2001/REC-SVG-20010904/DTD/svg10.dtd">
<svg version="1.0" xmlns="http://www.w3.org/2000/svg"
 width="700.000000pt" height="700.000000pt" viewBox="0 0 700.000000 700.000000"
 preserveAspectRatio="xMidYMid meet">
<metadata>
Created by potrace 1.14, written by Peter Selinger 2001-2017
</metadata>
<g transform="translate(0.000000,700.000000) scale(0.100000,-0.100000)"
fill="#000000" stroke="none">
<path d="M3278 6996 c-1 -2 -39 -6 -83 -10 -123 -9 -292 -34 -400 -58 -209
-46 -495 -133 -620 -188 -490 -216 -799 -423 -1140 -765 -213 -213 -303 -320
-454 -548 -269 -404 -469 -912 -535 -1362 -2 -16 -8 -50 -12 -75 -20 -131 -29
-273 -29 -495 1 -194 7 -327 20 -406 2 -13 6 -46 10 -74 9 -76 16 -116 25
-160 5 -22 11 -53 14 -70 44 -241 157 -568 288 -829 88 -177 131 -250 239
-411 184 -273 384 -496 655 -730 88 -76 440 -325 460 -325 2 0 23 -12 46 -26
184 -117 603 -288 853 -350 242 -59 389 -84 595 -101 123 -10 480 -10 595 0
863 77 1664 470 2255 1104 531 570 853 1291 928 2083 14 155 7 557 -13 725
-18 149 -63 371 -105 520 -25 89 -33 115 -52 170 -133 390 -331 749 -596 1082
-77 97 -348 377 -444 461 -126 109 -363 276 -528 372 -73 42 -290 153 -360
183 -269 114 -579 205 -835 243 -27 4 -57 9 -65 10 -8 2 -42 6 -76 9 -33 4
-74 9 -90 11 -32 5 -540 14 -546 10z m2017 -1086 c50 -37 101 -77 115 -89 14
-12 51 -45 82 -73 487 -425 834 -1030 959 -1673 5 -27 12 -66 15 -85 3 -19 7
-48 11 -65 3 -16 7 -43 9 -60 1 -16 6 -66 10 -110 15 -157 8 -481 -12 -625
-64 -449 -187 -805 -405 -1173 -52 -86 -190 -291 -208 -307 -4 -3 -38 -43 -78
-90 -367 -437 -860 -764 -1403 -932 -141 -43 -348 -91 -450 -103 -30 -4 -66
-9 -80 -10 -138 -19 -404 -25 -524 -12 -198 20 -426 106 -611 231 -115 77
-292 254 -368 367 -64 97 -145 263 -172 354 -10 33 -20 65 -21 70 -2 6 -12 57
-23 115 -15 82 -18 139 -16 260 2 85 6 166 9 180 3 14 9 39 11 55 34 191 128
402 253 567 97 127 199 224 339 321 58 41 263 142 308 153 17 4 35 9 40 13 6
3 15 6 20 7 6 1 37 9 70 17 33 9 80 18 105 22 25 3 56 8 70 10 14 3 93 7 175
10 83 2 159 6 170 9 11 2 47 7 80 11 170 19 419 100 595 193 65 35 248 152
272 175 7 6 35 30 63 52 27 22 83 74 124 115 302 306 490 703 536 1135 6 57 7
293 1 340 -2 22 -7 67 -11 100 -19 170 -105 444 -188 594 l-19 34 29 -18 c15
-10 69 -48 118 -85z m-1605 -159 c230 -74 398 -258 450 -496 11 -50 14 -190 6
-234 -59 -283 -263 -488 -535 -536 -276 -48 -557 89 -684 333 -59 115 -79 191
-79 312 0 200 94 389 257 516 58 45 157 93 239 114 94 25 253 21 346 -9z"/>
<path d="M3342 2520 c-224 -59 -403 -225 -478 -445 -23 -68 -27 -97 -28 -195
-1 -136 5 -180 38 -261 86 -214 264 -367 485 -419 79 -19 233 -17 311 3 68 18
173 65 225 101 54 38 159 151 194 210 36 60 77 171 87 234 53 335 -141 652
-466 762 -93 31 -268 36 -368 10z"/>
</g>
</svg>
