<svg width="60" height="60" viewBox="0 0 60 60" fill="none" xmlns="http://www.w3.org/2000/svg">
<path d="M57.5002 15.6712L50.0502 15.6687L50.5677 12.963C50.6427 12.9447 50.7177 12.9526 50.7927 12.9264L58.2927 10.3147C59.6002 9.85768 60.3077 8.37941 59.8702 7.01083C59.4352 5.64225 58.0302 4.89791 56.7102 5.35761L51.6902 7.10742L52.4528 3.12459C52.7228 1.71169 51.8428 0.335273 50.4902 0.0532074C49.1327 -0.231429 47.8202 0.685284 47.5502 2.10075L45.1977 14.3837L43.5227 16.1335L38.7427 18.6304L39.9253 13.6942C40.2628 12.2943 39.4453 10.8761 38.1052 10.5262C36.7652 10.1658 35.4103 11.0277 35.0752 12.4249L32.5753 22.8718C32.5252 23.0807 32.5003 23.2923 32.5003 23.5064V28.453C32.2528 28.526 31.9878 28.5836 31.7677 28.6776C30.6802 29.1295 29.3252 29.1295 28.2302 28.6776C28.0102 28.5836 27.7451 28.5262 27.5002 28.453V23.5064C27.5002 23.2923 27.4753 23.0807 27.4252 22.8718L24.9252 12.4249C24.5902 11.0277 23.2278 10.1684 21.8952 10.5262C20.5552 10.8763 19.7403 12.2944 20.0752 13.6942L21.2577 18.6304L16.4778 16.1335L14.8028 14.3837L12.4525 2.10075C12.1825 0.687855 10.8825 -0.236693 9.51002 0.0532074C8.15755 0.335273 7.27748 1.71169 7.55005 3.12459L8.31259 7.10742L3.29251 5.35749C1.96746 4.89791 0.564962 5.64225 0.129961 7.01071C-0.307501 8.37929 0.399962 9.85744 1.71 10.3146L9.21002 12.9262C9.28502 12.9523 9.35756 12.9445 9.43256 12.9629L9.95006 15.6686L2.50008 15.6711C1.1175 15.6712 0 16.8413 0 18.2829C0 19.7246 1.11996 20.8946 2.49997 20.8946L14.405 20.892L22.5 25.1204V28.6959C21.9726 28.9779 21.4776 29.3227 21.07 29.7797C20.5225 30.3934 20.1125 31.1561 19.7775 32.0023C18.1725 30.6468 16.285 29.704 14.2575 29.3279C12.5901 29.0171 10.8 28.9414 8.93252 29.1033C8.03005 29.1791 7.23998 29.7614 6.86251 30.6207C6.48997 31.48 6.58747 32.4855 7.12255 33.2481C7.13755 33.269 8.52259 35.2748 9.1826 37.2127C10.3476 40.647 12.7351 43.2588 15.7351 44.3793C17.1677 44.9146 19.3352 45.1575 21.1826 45.1706C22.1627 47.1947 22.7327 49.0177 22.7601 50.3549C22.6901 51.2899 22.5651 55.1369 24.81 57.7356C25.7001 58.7699 27.3276 60 30.0001 60C32.6725 60 34.3 58.7699 35.1901 57.7356C37.4376 55.1369 37.3101 51.2899 37.2426 50.3549C37.2676 49.0177 37.8376 47.1921 38.8201 45.1706C40.6651 45.1575 42.835 44.9146 44.2651 44.3793C47.2651 43.2588 49.6526 40.6472 50.8176 37.2154C51.4827 35.2618 52.8676 33.2664 52.8801 33.2455C53.4126 32.4829 53.5101 31.4773 53.1351 30.6182C52.7577 29.7616 51.9676 29.1791 51.0676 29.1034C49.2001 28.9414 47.4101 29.0172 45.7451 29.3281C43.72 29.7041 41.8351 30.6418 40.2325 31.9946C39.955 31.3025 39.6325 30.6548 39.2101 30.1141C38.74 29.5108 38.1475 29.0538 37.5001 28.7064V25.1204L45.5951 20.892L57.5 20.8946C58.88 20.8946 60 19.7246 60 18.2829C60 16.8413 58.8826 15.6712 57.5002 15.6712ZM17.4201 39.4614C15.84 38.8711 14.5551 37.4138 13.8951 35.468C13.785 35.1415 13.6601 34.8177 13.5276 34.499C15.7526 34.9639 17.7101 36.5857 18.7851 38.8632L19.1076 39.5501L19.1751 39.8218C18.4275 39.7303 17.7925 39.5998 17.4201 39.4614ZM40.8951 39.5501L41.2176 38.8606C42.2901 36.5859 44.2452 34.9665 46.4727 34.499C46.3401 34.8177 46.2152 35.1415 46.1076 35.468C45.4452 37.4137 44.1601 38.871 42.5802 39.4614C42.2076 39.5998 41.5727 39.7303 40.8252 39.8218L40.8951 39.5501Z" fill="#01737E"/>
</svg>
