<svg width="60" height="60" viewBox="0 0 60 60" fill="none" xmlns="http://www.w3.org/2000/svg">
<path fill-rule="evenodd" clip-rule="evenodd" d="M47.6963 4.92246C48.6671 4.92246 49.4541 4.13543 49.4541 3.16465V1.75781C49.4541 0.787031 48.6671 0 47.6963 0C46.7255 0 45.9385 0.787031 45.9385 1.75781V3.16465C45.9385 4.13543 46.7255 4.92246 47.6963 4.92246ZM47.6963 17.5771C50.6041 17.5771 52.9697 15.2114 52.9697 12.3036C52.9697 9.39587 50.6041 7.03009 47.6963 7.03009C44.7885 7.03009 42.4229 9.39587 42.4229 12.3036C42.4229 15.2114 44.7884 17.5771 47.6963 17.5771ZM24.864 26.1107C24.6262 25.6739 24.2146 25.3581 23.7309 25.2419C23.2474 25.1255 22.7371 25.2199 22.3269 25.5006L12.5566 32.1916L22.503 11.881C22.7982 11.2785 23.4107 10.8964 24.0818 10.8964C24.7529 10.8964 25.3654 11.2784 25.6605 11.881L33.8135 28.5294L28.802 33.3453L24.864 26.1107ZM29.5775 37.4763L35.4374 31.845L47.985 57.4671C48.2519 58.0118 48.2188 58.6556 47.8978 59.1704C47.5766 59.6852 47.013 59.998 46.4063 59.998H1.75784C1.15116 59.998 0.587373 59.6852 0.26628 59.1704C-0.054697 58.6558 -0.0876267 58.0118 0.179092 57.4671L9.41722 38.603L22.7071 29.5016L26.8155 37.0493C27.0776 37.5307 27.5492 37.8624 28.0908 37.9462C28.632 38.0298 29.1822 37.8562 29.5775 37.4763ZM38.5582 14.0614H37.1514C36.1806 14.0614 35.3936 13.2744 35.3936 12.3036C35.3936 11.3329 36.1806 10.5458 37.1514 10.5458H38.5582C39.529 10.5458 40.316 11.3329 40.316 12.3036C40.316 13.2744 39.529 14.0614 38.5582 14.0614ZM56.835 14.0614C55.8642 14.0614 55.0771 13.2744 55.0771 12.3036C55.0771 11.3329 55.8642 10.5458 56.835 10.5458H58.2418C59.2126 10.5458 59.9996 11.3329 59.9996 12.3036C59.9996 13.2744 59.2126 14.0614 58.2418 14.0614H56.835ZM45.9385 21.4426V22.8494C45.9385 23.8202 46.7255 24.6073 47.6963 24.6073C48.6671 24.6073 49.4541 23.8202 49.4541 22.8494V21.4426C49.4541 20.4718 48.6671 19.6848 47.6963 19.6848C46.7255 19.6848 45.9385 20.4718 45.9385 21.4426ZM38.9962 18.5179L39.9908 17.5231C40.6772 16.8365 41.7903 16.8365 42.4766 17.5228C43.1631 18.2093 43.1632 19.3223 42.4769 20.0088L41.4822 21.0036C41.139 21.3469 40.6889 21.5186 40.2392 21.5186C39.7894 21.5186 39.3396 21.347 38.9964 21.0038C38.3099 20.3173 38.3098 19.2042 38.9962 18.5179ZM39.991 7.08423C40.3343 7.42759 40.7842 7.59927 41.234 7.59927C41.6837 7.59927 42.1336 7.42759 42.4767 7.08446C43.1632 6.3981 43.1633 5.28505 42.477 4.59845L41.4823 3.60364C40.7958 2.91739 39.683 2.91728 38.9964 3.60353C38.3099 4.28989 38.3098 5.40294 38.9961 6.08942L39.991 7.08423ZM55.4012 7.08435C55.058 7.42759 54.6082 7.59927 54.1583 7.59927C53.7085 7.59927 53.2586 7.42759 52.9153 7.08435C52.2288 6.39786 52.2288 5.28481 52.9153 4.59845L53.9101 3.60364C54.5966 2.91728 55.7096 2.91728 56.396 3.60364C57.0825 4.29013 57.0825 5.40317 56.396 6.08954L55.4012 7.08435ZM55.4021 17.5229C54.7158 16.8366 53.6027 16.8366 52.9162 17.5229C52.2297 18.2093 52.2297 19.3223 52.9162 20.0088L53.911 21.0036C54.2543 21.3469 54.7042 21.5186 55.1539 21.5186C55.6037 21.5186 56.0537 21.3469 56.3968 21.0036C57.0833 20.3173 57.0833 19.2042 56.3968 18.5177L55.4021 17.5229ZM45 31.1698C45.6543 31.1698 46.2543 31.5332 46.5576 32.1128L59.7997 57.4254C60.0849 57.9703 60.0645 58.6246 59.746 59.1506C59.4274 59.6767 58.8572 59.998 58.2422 59.998H53.0182C52.3804 58.326 41.3975 36.0219 41.3975 36.0219L43.4425 32.1128C43.7458 31.5332 44.3458 31.1698 45 31.1698Z" fill="#01737E"/>
</svg>
