<svg width="60" height="60" viewBox="0 0 60 60" fill="none" xmlns="http://www.w3.org/2000/svg">
<path fill-rule="evenodd" clip-rule="evenodd" d="M21.5499 16.9922H16.6124C15.6415 16.9922 14.8546 16.2053 14.8546 15.2344C14.8546 14.2635 15.6415 13.4766 16.6124 13.4766H21.5499C21.776 12.3756 22.2109 11.3498 22.8101 10.4425L19.316 6.94794C18.6298 6.26129 18.6298 5.14847 19.316 4.46182C20.0026 3.77563 21.1155 3.77563 21.8021 4.46228L25.2962 7.95639C26.2035 7.35672 27.2294 6.9223 28.3298 6.69617V1.75781C28.3298 0.786896 29.1167 0 30.0877 0C31.0586 0 31.8455 0.786896 31.8455 1.75781V6.69617C32.9464 6.9223 33.9718 7.35672 34.8791 7.95639L38.3732 4.46228C39.0598 3.77563 40.1727 3.77563 40.8588 4.46182C41.5455 5.14847 41.5455 6.26129 40.8593 6.94794L37.3652 10.4425C37.9644 11.3498 38.3993 12.3756 38.6254 13.4766H43.5629C44.5338 13.4766 45.3207 14.2635 45.3207 15.2344C45.3207 16.2053 44.5338 16.9922 43.5629 16.9922H38.6254C38.3993 18.0931 37.9644 19.119 37.3652 20.0262L40.8593 23.5208C41.5455 24.2075 41.5455 25.3203 40.8588 26.0069C40.516 26.3498 40.066 26.5215 39.616 26.5215C39.1665 26.5215 38.7165 26.3498 38.3732 26.0065L34.8791 22.5124C33.9718 23.112 32.9459 23.5464 31.8455 23.7726V28.7109C31.8455 29.6819 31.0586 30.4688 30.0877 30.4688C29.1167 30.4688 28.3298 29.6819 28.3298 28.7109V23.7726C27.2289 23.5464 26.2035 23.112 25.2962 22.5124L21.8021 26.0065C21.4588 26.3498 21.0088 26.5215 20.5593 26.5215C20.1093 26.5215 19.6593 26.3498 19.316 26.0069C18.6298 25.3203 18.6298 24.2075 19.316 23.5208L22.8101 20.0262C22.2109 19.119 21.776 18.0931 21.5499 16.9922ZM3.03176 36.828C2.36297 37.5316 1.25014 37.5595 0.546559 36.8907C-0.157024 36.2219 -0.184948 35.1091 0.483846 34.4055C1.89651 32.9196 3.78158 32.1011 5.79208 32.1011C7.80212 32.1011 9.68766 32.9196 11.1003 34.4055C11.8428 35.1865 12.8233 35.6168 13.8606 35.6168C14.8984 35.6168 15.8785 35.1865 16.621 34.4055C18.0336 32.9196 19.9187 32.1011 21.9292 32.1011C23.9392 32.1011 25.8248 32.9196 27.2374 34.4055C27.9799 35.1865 28.96 35.6168 29.9977 35.6168C31.035 35.6168 32.0156 35.1865 32.7576 34.4055C34.1707 32.9196 36.0558 32.1011 38.0658 32.1011C40.0763 32.1011 41.9614 32.9196 43.3745 34.4055C44.1166 35.1865 45.0971 35.6168 46.1344 35.6168C47.1721 35.6168 48.1522 35.1865 48.8947 34.4055C50.3074 32.9196 52.1925 32.1011 54.203 32.1011C56.2135 32.1011 58.0985 32.9196 59.5112 34.4055C60.18 35.1091 60.1521 36.2219 59.448 36.8907C58.7444 37.5595 57.6321 37.5311 56.9628 36.828C56.2203 36.0466 55.2402 35.6168 54.203 35.6168C53.1652 35.6168 52.1851 36.0466 51.4426 36.828C50.03 38.3139 48.1444 39.1324 46.1344 39.1324C44.1239 39.1324 42.2388 38.3139 40.8262 36.8275C40.0837 36.0466 39.1036 35.6168 38.0658 35.6168C37.0285 35.6168 36.048 36.0466 35.3055 36.828C33.8929 38.3139 32.0078 39.1324 29.9973 39.1324C27.9872 39.1324 26.1017 38.3139 24.6891 36.828C23.9466 36.0466 22.9665 35.6168 21.9292 35.6168C20.8914 35.6168 19.9109 36.0466 19.1689 36.828C17.7562 38.3139 15.8711 39.1324 13.8606 39.1324C11.8501 39.1324 9.96506 38.3139 8.5524 36.8275C7.80991 36.0466 6.82983 35.6168 5.79208 35.6168C4.75433 35.6168 3.77426 36.0466 3.03176 36.828ZM3.03176 47.1487C2.36297 47.8523 1.25014 47.8802 0.54656 47.2115C-0.157024 46.5427 -0.184948 45.4298 0.483846 44.7263C1.89651 43.2404 3.78158 42.4219 5.79208 42.4219C7.80213 42.4219 9.68766 43.2404 11.1003 44.7263C11.8428 45.5072 12.8229 45.9375 13.8606 45.9375C14.8979 45.9375 15.878 45.5072 16.6205 44.7263C18.0332 43.2404 19.9187 42.4219 21.9287 42.4219C23.9392 42.4219 25.8243 43.2404 27.237 44.7263C27.9795 45.5072 28.96 45.9375 29.9973 45.9375C31.0346 45.9375 32.0151 45.5072 32.7576 44.7263C34.1703 43.2404 36.0553 42.4219 38.0658 42.4219C40.0759 42.4219 41.9614 43.2404 43.3741 44.7263C44.1161 45.5072 45.0966 45.9375 46.1339 45.9375C47.1717 45.9375 48.1518 45.5072 48.8943 44.7263C50.3069 43.2404 52.192 42.4219 54.2025 42.4219C56.213 42.4219 58.0981 43.2404 59.5107 44.7263C60.1795 45.4303 60.1516 46.5427 59.448 47.2115C58.7444 47.8802 57.6316 47.8523 56.9628 47.1487C56.2203 46.3678 55.2402 45.9375 54.2025 45.9375C53.1652 45.9375 52.1847 46.3678 51.4422 47.1487C50.0295 48.6346 48.1444 49.4531 46.1339 49.4531C44.1239 49.4531 42.2388 48.6346 40.8262 47.1487C40.0837 46.3678 39.1036 45.9375 38.0658 45.9375C37.0281 45.9375 36.048 46.3678 35.3055 47.1487C33.8929 48.6346 32.0078 49.4531 29.9973 49.4531C27.9868 49.4531 26.1017 48.6346 24.6891 47.1487C23.9466 46.3678 22.9665 45.9375 21.9287 45.9375C20.8914 45.9375 19.9109 46.3678 19.1684 47.1487C17.7562 48.6346 15.8707 49.4531 13.8606 49.4531C11.8501 49.4531 9.96506 48.6346 8.5524 47.1487C7.80991 46.3678 6.82938 45.9375 5.79208 45.9375C4.75433 45.9375 3.77426 46.3678 3.03176 47.1487ZM59.5156 55.2731C58.103 53.7872 56.2179 52.9688 54.2074 52.9688C52.1973 52.9688 50.3118 53.7872 48.8991 55.2731C48.1567 56.0541 47.1766 56.4844 46.1388 56.4844C45.1015 56.4844 44.1215 56.0541 43.379 55.2731C41.9663 53.7872 40.0808 52.9688 38.0707 52.9688C36.0602 52.9688 34.1752 53.7872 32.7625 55.2731C32.02 56.0541 31.0399 56.4844 30.0022 56.4844C28.9644 56.4844 27.9843 56.0541 27.2419 55.2731C25.8292 53.7872 23.9441 52.9688 21.9336 52.9688C19.9236 52.9688 18.038 53.7872 16.6254 55.2731C15.8829 56.0541 14.9028 56.4844 13.8655 56.4844C12.8278 56.4844 11.8477 56.0541 11.1052 55.2731C9.69254 53.7872 7.80747 52.9688 5.79696 52.9688C3.78646 52.9688 1.90139 53.7872 0.488729 55.2731C-0.180065 55.9767 -0.152141 57.0895 0.551443 57.7583C1.25503 58.4271 2.36785 58.3992 3.03665 57.6956C3.77914 56.9147 4.75921 56.4844 5.79696 56.4844C6.83426 56.4844 7.81479 56.9147 8.55728 57.6956C9.96994 59.1815 11.855 60 13.8655 60C15.8756 60 17.7611 59.1815 19.1733 57.6956C19.9158 56.9147 20.8963 56.4844 21.9336 56.4844C22.9714 56.4844 23.9514 56.9147 24.6939 57.6956C26.1066 59.1815 27.9917 60 30.0022 60C32.0122 60 33.8977 59.1815 35.3104 57.6956C36.0529 56.9147 37.033 56.4844 38.0707 56.4844C39.108 56.4844 40.0886 56.9147 40.831 57.6956C42.2433 59.1815 44.1288 60 46.1388 60C48.1493 60 50.0344 59.1815 51.4471 57.6956C52.1896 56.9147 53.1701 56.4844 54.2074 56.4844C55.2451 56.4844 56.2252 56.9147 56.9677 57.6956C57.6365 58.3992 58.7493 58.4271 59.4529 57.7583C60.1565 57.0895 60.1844 55.9767 59.5156 55.2731Z" fill="#01737E"/>
</svg>
