<svg width="60" height="60" viewBox="0 0 60 60" fill="none" xmlns="http://www.w3.org/2000/svg">
<path fill-rule="evenodd" clip-rule="evenodd" d="M47.183 25.1133L59.6752 12.6363L57.2307 10.1098L48.8822 18.4594L46.4728 16.05L54.8635 7.65938L52.4119 5.13867L43.9873 13.5645L41.4244 11.0016L49.9041 2.5207L47.4525 0L34.7717 12.702C31.9451 15.5285 31.4494 19.8023 33.2857 23.1352L36.7393 26.5945C40.0756 28.4367 44.3541 27.9434 47.183 25.1133ZM5.2875 60L24.7113 40.5773L19.2879 35.1445L0 54.4336L5.2875 60ZM60 54.2426L54.8988 60L32.3145 37.9816L37.7531 32.543L60 54.2426ZM27.1974 38.0918L35.2481 30.0762L5.21416 0C5.19539 0.0172435 5.17662 0.0344755 5.15786 0.051699C4.46813 0.68505 3.79086 1.30696 3.23721 2.06836C0.340682 6.05168 0.90119 11.6939 4.33994 15.1934L27.1974 38.0918Z" fill="#01737E"/>
</svg>
