<svg width="60" height="60" viewBox="0 0 60 60" fill="none" xmlns="http://www.w3.org/2000/svg">
<path fill-rule="evenodd" clip-rule="evenodd" d="M55.798 4.2022C56.7132 5.11743 56.7134 6.60149 55.798 7.51672L55.0873 8.22746C55.8616 9.11796 56.5886 10.0507 57.2666 11.0199L58.2839 10.0025C60.5721 7.71429 60.5721 4.00439 58.2839 1.71619C55.9957 -0.572005 52.2857 -0.572122 49.9975 1.71619L48.9802 2.73349C49.9494 3.41154 50.8821 4.13845 51.7726 4.91282L52.4834 4.20208C53.3987 3.28685 54.8828 3.28685 55.798 4.2022ZM29.8827 10.7813C19.2209 10.7813 10.5469 19.4554 10.5469 30.1172C10.5469 40.779 19.2209 49.453 29.8827 49.453C40.5445 49.453 49.2186 40.779 49.2186 30.1172C49.2186 19.4554 40.5447 10.7813 29.8827 10.7813ZM39.7917 22.5069L31.5053 42.3943C31.2312 43.0523 30.5889 43.476 29.8833 43.476C29.8457 43.476 29.8079 43.4749 29.7698 43.4724C29.0204 43.4241 28.3845 42.9052 28.1868 42.1808L25.9653 34.0349L17.8193 31.8132C17.0947 31.6156 16.5758 30.9797 16.5276 30.2303C16.4794 29.4808 16.9125 28.7836 17.6056 28.4947L37.493 20.2084C38.1504 19.9344 38.9084 20.0844 39.412 20.5881C39.9157 21.0918 40.0657 21.8494 39.7917 22.5069ZM29.092 32.1407C28.9282 31.5402 28.4591 31.071 27.8587 30.9073L23.6861 29.7694L34.9039 25.0954L30.2298 36.313L29.092 32.1407ZM52.735 30.1172C52.735 35.786 50.6594 40.9787 47.2291 44.9769L52.2091 49.9568C56.9071 44.6759 59.7662 37.7247 59.7662 30.1172C59.7662 22.5096 56.9071 15.5584 52.2091 10.2775L47.2291 15.2575C50.6594 19.2557 52.735 24.4484 52.735 30.1172ZM44.7423 12.7716C40.7441 9.34144 35.5514 7.26571 29.8826 7.26571C24.2138 7.26571 19.0213 9.34144 15.023 12.7716L10.043 7.79164C15.3239 3.09361 22.2751 0.23448 29.8826 0.23448C37.4902 0.23448 44.4414 3.09361 49.7223 7.79164L44.7423 12.7716ZM7.03123 30.1172C7.03123 24.4484 9.10696 19.2557 12.5371 15.2575L7.55716 10.2775C2.85913 15.5584 0 22.5096 0 30.1172C0 37.7247 2.85913 44.6759 7.55716 49.9568L12.5371 44.9769C9.10696 40.9787 7.03123 35.786 7.03123 30.1172ZM15.023 47.4628C19.0211 50.893 24.2138 52.9687 29.8826 52.9687C35.5514 52.9687 40.7441 50.893 44.7423 47.4628L49.7223 52.4427C44.4414 57.1408 37.4902 59.9999 29.8826 59.9999C22.2751 59.9999 15.3239 57.1408 10.043 52.4427L15.023 47.4628Z" fill="#01737E"/>
</svg>
