<svg width="50" height="60" viewBox="0 0 50 60" fill="none" xmlns="http://www.w3.org/2000/svg">
<path fill-rule="evenodd" clip-rule="evenodd" d="M28.5 12C32.0899 12 35 9.31371 35 6C35 2.68629 32.0899 0 28.5 0C24.9101 0 22 2.68629 22 6C22 9.31371 24.9101 12 28.5 12ZM19.5342 15.1215C19.7766 13.7186 21.0627 12.875 22.0018 13.0964L28.8179 14.7043C28.8748 14.7181 28.9295 14.7378 28.9819 14.7629C29.2775 14.8445 29.5632 14.9659 29.8283 15.1285L38.4675 20.4649L44.5229 18.0553V14.8511C44.5229 14.5358 44.7785 14.2802 45.0938 14.2802C45.409 14.2802 45.6646 14.5358 45.6646 14.8511V17.5979C47.3002 16.9376 48.9304 16.3913 49.8525 17.8689C50.5465 18.9689 48.6655 20.2785 46.8672 21.2759C46.5801 21.4342 46.162 21.6581 45.6646 21.9211V59.1273C45.6646 59.4426 45.409 59.6982 45.0938 59.6982C44.7785 59.6982 44.5229 59.4426 44.5229 59.1273V22.5215C42.0306 23.826 38.7539 25.5101 38.7539 25.5101C37.768 25.8713 36.4213 25.5916 35.5455 25.058L28.8398 20.9487L25.3999 32.9L34.3238 40.3985C35.5713 41.4774 35.4006 43.1576 35.1169 44.5861C34.8333 46.0122 32.4951 56.1282 32.4951 56.1282C32.3051 56.9415 31.501 60.155 29.6751 59.9942C27.7197 59.8217 27.538 58.3117 27.6316 55.7064L28.9122 45.1453L17.3427 36.903C17.2773 36.8467 17.2209 36.7906 17.1728 36.7347C14.1088 34.343 14.1719 32.1828 14.8855 29.2689L19.5342 15.1215ZM12.5182 44.4486L13.6859 37.5392C14.446 39.7274 20.2212 42.9619 20.2212 42.9596L19.0452 46.2174C18.4496 47.2087 17.0616 49.034 14.5629 52.3201L14.5629 52.3201L14.5628 52.3203L14.5625 52.3206L14.5604 52.3233L14.5566 52.3284C13.9145 53.1728 13.1992 54.1135 12.4053 55.1611C10.0865 58.2209 7.87227 59.8824 6.22539 59.1413C5.15133 58.6566 5.88664 56.7201 7.44816 54.0333C9.51365 50.4865 12.5182 44.4486 12.5182 44.4486ZM11.6155 27.3324C12.2352 25.6266 16.3221 14.8931 16.3221 14.8931C17.9166 10.286 10.6406 11.2624 7.45423 14.0705C4.26787 16.8809 0.59405 21.2502 0.0515143 24.5406C-0.444204 27.5607 2.72564 28.6443 5.77981 29.4343C8.83398 30.222 10.9959 29.0382 11.6155 27.3324Z" fill="#01737E"/>
</svg>
