<svg width="70" height="60" viewBox="0 0 70 60" fill="none" xmlns="http://www.w3.org/2000/svg">
<path d="M67.7578 54.526C62.9293 50.5008 67.3052 40.6796 67.3052 40.6796C76.0567 16.8508 60.9151 4.84682 58.3262 3.28224C53.0552 0.0967204 40.5178 -3.02462 34.1885 5.54764C32.3984 7.97201 32.9967 10.9829 33.8207 13.0872C35.9414 18.5024 41.6421 23.3715 46.5284 23.94C47.9218 24.106 48.9367 23.7652 49.624 22.911C51.8083 20.1978 50.6566 13.0594 50.0271 10.5375C49.8563 9.85069 50.2393 9.145 50.8842 8.96133C51.07 8.90869 51.2534 8.91697 51.4299 8.95527C51.8654 9.04947 52.2396 9.38546 52.3613 9.87583C52.6253 10.9375 54.8498 20.3751 51.456 24.5902C50.7075 25.5198 49.3766 26.555 47.1639 26.555C46.8797 26.555 46.5804 26.5374 46.2668 26.5008C40.5024 25.8291 34.0577 20.3738 31.5928 14.0795C30.9726 12.496 30.6633 10.9644 30.6299 9.51959C16.8086 9.51959 1.03047 17.7412 0.00268786 32.5295C-0.0302966 33.0039 0.243142 33.4415 0.666397 33.5912C1.08965 33.7421 1.55518 33.5662 1.79452 33.165C2.64325 31.7429 3.70014 30.2033 4.74996 29.2335C4.90061 31.5625 5.56362 33.7877 6.70907 35.819C9.00302 39.8869 10.2279 44.5585 10.2279 49.3055L10.2498 58.0679C10.3666 59.1417 12.7437 60 15.6799 60C18.6172 60 20.9943 59.1417 21.1112 58.0679L21.1331 52.3811C21.1331 50.8881 21.7166 49.4617 22.7422 48.4451C23.7677 47.4287 25.142 47.0213 26.5413 47.0213C27.4093 47.0213 29.1855 47.0227 29.2893 47.0213C30.632 47.0064 31.9252 47.6627 32.8787 48.6715C33.8336 49.6804 34.37 51.0539 34.37 52.4867L34.3919 58.0678C34.5088 59.1416 36.8857 59.9999 39.822 59.9999C42.7593 59.9999 45.1364 59.1416 45.2534 58.0678L45.2753 53.1559C45.2753 38.5749 55.289 32.0683 56.4788 31.2969C62.3836 27.4689 59.7606 39.0691 59.7606 39.0691C55.8375 52.1105 64.8908 58.0678 64.8908 58.0678L64.9314 58.0176C64.9597 58.0484 64.9677 58.0981 65.0004 58.1244C65.5803 58.591 66.6357 58.1434 67.3558 57.1219C68.0199 56.1844 68.1413 55.1161 67.7118 54.5827L67.7578 54.526Z" fill="#01737E"/>
</svg>
