<svg width="70" height="60" viewBox="0 0 70 60" fill="none" xmlns="http://www.w3.org/2000/svg">
<path fill-rule="evenodd" clip-rule="evenodd" d="M35.3481 36.0446L26.9878 24.4967C26.5091 23.8355 26.9815 22.9103 27.7978 22.9103H64.087C64.7722 22.9103 65.2536 22.2383 64.9991 21.6021C63.872 18.7846 61.7306 14.7585 57.762 10.6748C51.1693 3.89085 41.5614 0 31.4019 0H30.319C22.2206 0 14.6066 3.04939 8.88022 8.58648C3.15371 14.1235 0 21.4853 0 29.316V30.6839C0 38.5146 3.15371 45.8765 8.88022 51.4135C14.6066 56.9506 22.2206 60 30.319 60H67.2634C67.7741 60 68.2028 59.6151 68.2576 59.1073L69.9933 43.0225C70.0571 42.4312 69.5938 41.9153 68.9991 41.9153H47.0091C42.3685 41.9153 38.0092 39.7207 35.3481 36.0446ZM59.3924 49.2818C59.3924 48.7295 59.8401 48.2818 60.3924 48.2818H62.2654C62.8177 48.2818 63.2654 48.7295 63.2654 49.2818V51.2811C63.2654 51.8333 62.8177 52.2811 62.2654 52.2811H60.3924C59.8401 52.2811 59.3924 51.8333 59.3924 51.2811V49.2818ZM50.363 49.2818C50.363 48.7295 50.8107 48.2818 51.363 48.2818H53.2362C53.7885 48.2818 54.2362 48.7295 54.2362 49.2818V51.2811C54.2362 51.8333 53.7885 52.2811 53.2362 52.2811H51.363C50.8107 52.2811 50.363 51.8333 50.363 51.2811V49.2818ZM51.8621 37.4592C52.0444 37.7532 52.3658 37.932 52.7118 37.932H68.3254C68.9977 37.932 69.4782 37.282 69.265 36.6444C68.453 34.2153 67.0891 30.703 65.0899 27.3681C64.9121 27.0716 64.59 26.8934 64.2442 26.8934H47.1042C46.3202 26.8934 45.8411 27.7545 46.2544 28.4206L51.8621 37.4592ZM39.9461 26.8934C40.2921 26.8934 40.6135 27.0723 40.7959 27.3662L47.1705 37.6411C47.2493 37.768 47.158 37.932 47.0087 37.932C43.711 37.932 40.6133 36.3725 38.7222 33.7604L34.8994 28.4798C34.4207 27.8186 34.8931 26.8934 35.7094 26.8934H39.9461Z" fill="#01737E"/>
</svg>
