<svg width="60" height="60" viewBox="0 0 60 60" fill="none" xmlns="http://www.w3.org/2000/svg">
<path fill-rule="evenodd" clip-rule="evenodd" d="M30 0C38.0133 0 45.5469 3.12059 51.2133 8.78672C56.8794 14.4531 60 21.9867 60 30C60 38.0133 56.8794 45.5469 51.2133 51.2133C45.5469 56.8794 38.0133 60 30 60C21.9867 60 14.4531 56.8794 8.78672 51.2133C3.12059 45.5469 0 38.0133 0 30C0 21.9867 3.12059 14.4531 8.78672 8.78672C14.4531 3.12059 21.9867 0 30 0ZM47.5335 20.0181C44.0605 13.9309 37.5097 9.82699 30 9.82699C22.4902 9.82699 15.9395 13.9309 12.4665 20.0181C24.1077 18.3477 35.8923 18.3477 47.5335 20.0181ZM24.0225 45.2944C22.7829 38.5794 16.9634 33.692 10.1505 33.6152C11.545 41.3215 17.3168 47.5031 24.7978 49.4944L24.0225 45.2944ZM23.9062 30C23.9062 33.3601 26.6399 36.0938 30 36.0938C33.3601 36.0938 36.0938 33.3601 36.0938 30C36.0938 26.6399 33.3601 23.9062 30 23.9062C26.6399 23.9062 23.9062 26.6399 23.9062 30ZM35.9775 45.2944L35.2022 49.4944C42.6832 47.5031 48.455 41.3215 49.8495 33.6152C43.0366 33.692 37.2171 38.5794 35.9775 45.2944ZM32.5781 30C32.5781 31.4239 31.4239 32.5781 30 32.5781C28.5761 32.5781 27.4219 31.4239 27.4219 30C27.4219 28.5761 28.5761 27.4219 30 27.4219C31.4239 27.4219 32.5781 28.5761 32.5781 30Z" fill="#01737E"/>
</svg>
