<svg width="50" height="60" viewBox="0 0 50 60" fill="none" xmlns="http://www.w3.org/2000/svg">
<path d="M49.8576 35.1292C49.0939 26.1808 44.4647 20.5733 40.3809 15.6249C36.5993 11.0439 33.3333 7.08784 33.3333 1.25214C33.3333 0.783391 33.0417 0.354953 32.5792 0.140149C32.1152 -0.0759449 31.5578 -0.0405543 31.1361 0.235305C25.0027 4.18523 19.8853 10.8425 18.0977 17.1946C16.8566 21.6169 16.6924 26.5884 16.6694 29.8719C11.0053 28.7831 9.72227 21.158 9.70872 21.0749C9.64492 20.6794 9.37643 20.3352 8.98581 20.1472C8.59115 19.9617 8.12721 19.9482 7.72708 20.1265C7.43008 20.2558 0.436718 23.4539 0.0298172 36.2228C0.0013016 36.6476 0 37.0737 0 37.4996C0 49.9047 11.2155 59.9981 25 59.9981C25.019 59.9993 25.0393 60.0017 25.0556 59.9981C25.0611 59.9981 25.0664 59.9981 25.0732 59.9981C38.8238 59.9626 50 49.8828 50 37.4996C50 36.8758 49.8576 35.1292 49.8576 35.1292ZM25 57.4982C20.4047 57.4982 16.6667 53.9145 16.6667 49.5093C16.6667 49.3592 16.6654 49.2078 16.6775 49.0223C16.7331 47.1645 17.1251 45.8963 17.5551 45.0528C18.3608 46.6104 19.8012 48.0422 22.1409 48.0422C22.9086 48.0422 23.5298 47.4831 23.5298 46.7922C23.5298 45.0126 23.5706 42.9595 24.0629 41.1065C24.501 39.4636 25.548 37.7156 26.8746 36.3144C27.4646 38.1331 28.6148 39.6051 29.7379 41.0419C31.3452 43.0973 33.0066 45.2225 33.2983 48.8465C33.3159 49.0613 33.3336 49.2774 33.3336 49.5093C33.3333 53.9144 29.5953 57.4982 25 57.4982Z" fill="#01737E"/>
</svg>
