<svg width="60" height="60" viewBox="0 0 60 60" fill="none" xmlns="http://www.w3.org/2000/svg">
<path d="M58.1822 42.9548L48 37.4997V59.9997H58.5C59.3288 59.9997 60 59.1606 60 58.1247V46.4013C60 45.6675 59.8278 44.9498 59.5046 44.3372C59.1815 43.7246 58.7217 43.2439 58.1822 42.9548ZM0 46.4013V58.1247C0 59.1606 0.67125 59.9997 1.5 59.9997H12V37.4997L1.81781 42.9548C1.27829 43.2439 0.818484 43.7246 0.495366 44.3372C0.172247 44.9498 1.24126e-05 45.6675 0 46.4013H0ZM43.5431 28.9075L39 25.4997V12.0267C39 11.0317 38.6841 10.079 38.1206 9.37471L31.0603 0.549316C30.4744 -0.183105 29.5247 -0.183105 28.9397 0.549316L21.8794 9.37471C21.3169 10.0778 21 11.0317 21 12.0267V25.4997L16.4569 28.9075C16.0126 29.2406 15.6448 29.7119 15.3895 30.2754C15.1342 30.8389 15 31.4755 15 32.1231V59.9997H24V48.7497C24 44.6071 26.6869 41.2497 30 41.2497C33.3131 41.2497 36 44.6071 36 48.7497V59.9997H45V32.1231C45 30.806 44.4469 29.5849 43.5431 28.9075Z" fill="#01737E"/>
</svg>
