<svg width="60" height="60" viewBox="0 0 60 60" fill="none" xmlns="http://www.w3.org/2000/svg">
<path d="M9.27892 33.1572C8.7266 33.3414 8.22473 33.6516 7.81305 34.0633C7.40137 34.4749 7.09118 34.9768 6.90704 35.5291L0 56.2502L0.54961 56.7998L11.4352 45.9143C11.3578 45.6143 11.2512 45.3248 11.2512 45.0002C11.2512 42.9295 12.9305 41.2502 15.0012 41.2502C17.0719 41.2502 18.7512 42.9295 18.7512 45.0002C18.7512 47.0709 17.0719 48.7502 15.0012 48.7502C14.6766 48.7502 14.3871 48.6436 14.0871 48.5662L3.20157 59.4518L3.75001 60.0002L24.4711 53.0932C25.0236 52.9092 25.5255 52.5991 25.9372 52.1874C26.3489 51.7757 26.6591 51.2737 26.843 50.7213L30.7184 40.8694L19.1309 29.2819L9.27892 33.1572ZM43.2716 3.31896L21.8133 26.6967L33.2801 38.1635L56.6579 16.7053C66.6095 7.90803 51.9997 -6.55526 43.2716 3.31896Z" fill="#01737E"/>
</svg>
