<svg width="70" height="60" viewBox="0 0 70 60" fill="none" xmlns="http://www.w3.org/2000/svg">
<path fill-rule="evenodd" clip-rule="evenodd" d="M20 23C26.6274 23 32 17.8513 32 11.5C32 5.14873 26.6274 0 20 0C13.3726 0 8 5.14873 8 11.5C8 17.8513 13.3726 23 20 23ZM43 33C43 36.866 39.6421 40 35.5 40C31.3579 40 28 36.866 28 33C28 29.134 31.3579 26 35.5 26C39.6421 26 43 29.134 43 33ZM32.3901 41H38.6134C43.7925 41 48.0036 45.1387 48 50.2226V57.7005L47.9494 57.6991L47.4594 57.9446C47.2122 58.0664 43.2127 60 36.312 60C32.7776 60 28.4839 59.4935 23.5428 57.9768L23.0192 57.8166L23 57.7005V50.2233C23 45.1387 27.2125 41 32.3901 41ZM61 13.4987C61 19.2971 56.076 24 50.0003 24C43.9233 24 39 19.2965 39 13.4987C39 7.70101 43.9233 3 50.0003 3C56.074 3 61 7.70228 61 13.4987ZM29.6505 39.6286C27.7554 38.0189 26.5502 35.642 26.5502 32.9903C26.5502 29.7384 28.3605 26.8999 31.0368 25.3858C29.2941 24.7028 27.3997 24.3163 25.4126 24.3163H15.2831C6.85603 24.3156 0 31.0713 0 39.3702V51.5744L0.0309024 51.7648L0.883954 52.026C8.77629 54.4554 15.6467 55.2913 21.3356 55.3218V50.107C21.3356 45.0501 24.8822 40.8058 29.6505 39.6286ZM45.435 25H55.2247C63.3702 25 69.9972 31.5365 70 39.5661V51.3742L69.9694 51.5585L69.1449 51.8112C61.5176 54.161 54.876 54.9706 49.3771 55V49.9558C49.3778 47.1656 48.2726 44.5384 46.2665 42.5591C44.8862 41.1975 43.1878 40.2668 41.3428 39.8141C43.1732 38.2566 44.3388 35.9568 44.3388 33.3926C44.3388 30.2448 42.589 27.4998 40 26.0349C41.6852 25.3739 43.5143 25 45.435 25Z" fill="#01737E"/>
</svg>
