<svg width="50" height="60" viewBox="0 0 50 60" fill="none" xmlns="http://www.w3.org/2000/svg">
<path d="M41.3242 50.9295C40.6018 50.8456 40.0563 50.7876 39.6124 50.7407C38.2486 50.5956 37.8823 50.5567 36.288 50.1848C35.6597 50.0382 33.2017 48.1808 33.2017 44.5457C33.2017 39.8626 34.6859 35.727 35.3235 34.1665C35.3404 34.1258 35.382 34.0079 35.4396 33.8483C35.545 33.5553 36.3188 31.7858 36.3188 31.7858C36.7382 30.8856 37.1724 29.9545 37.4544 28.9981L37.4696 28.9491C37.8953 27.5642 40.1024 21.3917 39.392 15.5002C39.2765 14.5423 38.3897 14.0028 37.9215 13.6357C37.9782 13.6853 37.8358 13.5682 37.9215 13.6357C37.4707 13.2429 36.8772 12.758 36.1897 12.197C35.7369 11.8269 35.2383 11.4192 34.7008 10.9733C33.8411 10.2609 32.8825 9.60917 31.955 8.97917C30.8146 8.20485 29.636 7.40409 28.6674 6.50134C27.2199 5.15264 25.8816 2.79205 26.1238 0.889563C26.1606 0.602536 26.0712 0.354591 25.8723 0.190807C25.6515 0.00869933 25.3052 -0.0480573 25.0002 0.0422668C24.6948 -0.0480573 24.3483 0.00869933 24.1279 0.190807C23.9292 0.354591 23.8394 0.602536 23.8766 0.889563C24.1184 2.79205 22.7801 5.15264 21.333 6.50134C20.364 7.40409 19.1854 8.20485 18.045 8.97917C17.118 9.60917 16.1587 10.2609 15.2994 10.9733C14.7622 11.4192 14.2628 11.8269 13.8102 12.197C13.1226 12.758 12.5295 13.2429 12.0783 13.6357C10.8259 14.8239 10.7627 14.937 10.6079 15.5038C9 21.3917 12.1049 27.5642 12.5306 28.9491L12.5456 28.9981C12.8276 29.9545 13.262 30.8858 13.681 31.7858C13.681 31.7858 14.4546 33.5553 14.56 33.8483C14.6178 34.0079 14.6596 34.1258 14.6765 34.1665C15.3139 35.727 16.7978 39.8626 16.7978 44.5457C16.7978 48.181 14.3401 50.0382 13.712 50.1848C12.1177 50.5567 11.7512 50.5956 10.3872 50.7407C9.94325 50.7876 9.39824 50.8456 8.67575 50.9295C0.845433 51.5538 0 54.4661 0 55.6894C0 56.0173 0.226617 57.0827 1.26014 58.0649C2.1889 58.9474 4.03864 60 7.57924 60C8.11039 60 8.67229 59.9763 9.24976 59.9296C11.6062 59.7399 13.981 59.4548 16.2773 59.1793C17.1115 59.0793 17.9441 58.9794 18.7783 58.8835C19.8895 58.7559 21.8923 58.6713 24.7301 58.6323C24.863 58.6304 24.9554 58.6289 25.0002 58.628C25.045 58.6289 25.1374 58.6306 25.2699 58.6323C28.1081 58.6713 30.1107 58.7559 31.2221 58.8835C32.0559 58.9794 32.8888 59.0793 33.7227 59.1793C36.0192 59.4548 38.3942 59.7399 40.7502 59.9296C41.3277 59.9762 41.8896 60 42.4208 60C45.962 60 47.8122 58.9479 48.7403 58.0649C49.7738 57.0829 50 56.0172 50 55.6894C49.9996 54.4661 49.1546 51.5538 41.3242 50.9295ZM29.1406 27.087C29.0239 27.087 28.9133 27.068 28.8014 27.0283C28.4371 26.9195 27.97 26.3981 27.9265 26.1957C29.7408 25.25 30.9665 23.4536 30.9665 21.3917C30.9665 18.3468 30.5377 15.0423 25 15.0423C19.4623 15.0423 19.0331 18.3468 19.0331 21.3917C19.0331 23.4536 20.2588 25.25 22.0728 26.1957C22.0302 26.3976 21.5525 26.8942 21.1981 27.0283C21.0865 27.068 20.9761 27.087 20.859 27.087C19.693 27.0873 18.2316 25.174 17.8478 24.4126C17.1939 23.119 16.3777 20.8956 16.2026 17.6509L16.1955 17.5261C16.1507 16.8426 17.5249 15.0946 17.7069 14.7956C17.9571 14.3839 21.2033 10.6767 22.1674 9.79841C22.5087 9.48787 24.2379 7.76766 25 7.00842C25.7619 7.76766 27.4908 9.48787 27.832 9.79841C28.7967 10.6767 32.042 14.3839 32.2927 14.7956C32.4749 15.0946 33.8491 16.8426 33.8045 17.5261L33.7974 17.6509C33.6221 20.8958 32.8063 23.1192 32.1518 24.4126C31.768 25.1738 30.307 27.087 29.1406 27.087Z" fill="#01737E"/>
</svg>
