<svg width="50" height="60" viewBox="0 0 50 60" fill="none" xmlns="http://www.w3.org/2000/svg">
<path fill-rule="evenodd" clip-rule="evenodd" d="M49.9827 22.9115C50.0175 23.3606 49.8751 23.8226 49.5518 24.1703L35.8099 38.9348C35.3114 38.7401 34.7727 38.6335 34.2105 38.6335H32.7998C32.8008 38.5514 32.8016 38.5 32.8022 38.4622C32.803 38.4072 32.8034 38.3811 32.8034 38.3311C32.8034 38.0804 32.7909 37.8329 32.77 37.5874L46.8454 22.4644C45.6668 19.8868 43.1589 18.1073 40.2543 18.1073C37.7715 18.1073 35.5794 19.4091 34.2589 21.3971L31.1914 32.1835L30.9571 33.0075C30.2465 32.1158 29.3631 31.3825 28.3605 30.8709L31.0373 21.4586C29.7215 19.4357 27.5087 18.1073 25.0002 18.1073C22.4429 18.1073 20.1942 19.4879 18.8883 21.5769L21.5979 30.8888C20.5981 31.4046 19.7174 32.1398 19.0113 33.0327L15.6352 21.4294C14.3172 19.423 12.1143 18.1073 9.61788 18.1073C6.75188 18.1073 4.27329 19.8406 3.07573 22.3629L17.2311 37.5398C17.2093 37.7883 17.1966 38.0393 17.1966 38.2935C17.1966 38.3642 17.1973 38.4055 17.199 38.5011C17.1996 38.5364 17.2003 38.5792 17.2012 38.6337H15.5976C15.101 38.6337 14.623 38.7178 14.1744 38.8713L0.438075 24.1435C0.120696 23.8031 -0.0226427 23.3526 0.00441314 22.9115H0L0.00767523 22.8531C0.00895448 22.8396 0.010916 22.8264 0.0128775 22.8131C0.0138582 22.8065 0.0148389 22.7999 0.0157344 22.7932C1.74002 9.92928 12.286 0 25.0002 0C37.7531 0 48.3248 9.99036 50 22.9115H49.9827ZM34.2095 41.859C35.0573 41.859 35.7446 42.581 35.7446 43.4715C35.7446 44.3621 35.0573 45.0841 34.2095 45.0839H28.581V58.3874C28.581 59.278 27.8936 60 27.0459 60C26.1981 60 25.5108 59.278 25.5108 58.3874V53.245C25.3189 53.3109 24.9443 53.3482 24.6473 53.3482C24.3808 53.3482 24.2064 53.3181 23.8962 53.2644C23.8606 53.2582 23.8233 53.2518 23.7838 53.245V58.3874C23.7838 59.278 23.0965 60 22.2487 60C21.401 60 20.7137 59.278 20.7137 58.3874V45.0839H15.5966C14.7489 45.0839 14.0616 44.3619 14.0616 43.4713C14.0616 42.5808 14.7489 41.8588 15.5966 41.8588H21.4192C21.4317 41.6572 21.4447 41.6572 21.4578 41.6572H21.4587C21.4623 41.6572 21.4659 41.6482 21.4696 41.6391C21.4715 41.6344 21.4734 41.6297 21.4752 41.6262C20.7234 40.7461 20.2658 39.5289 20.2658 38.2535C20.2658 35.5078 22.3852 33.2841 24.9992 33.2841C27.6129 33.2841 29.7323 35.5858 29.7323 38.3315C29.7323 39.6603 29.2351 40.8512 28.4267 41.859H34.2095Z" fill="#01737E"/>
</svg>
