<svg width="60" height="60" viewBox="0 0 60 60" fill="none" xmlns="http://www.w3.org/2000/svg">
<path d="M50.6274 11.2522C53.733 11.2522 56.2527 8.73217 56.2527 5.6261C56.2527 2.52002 53.733 0 50.6274 0C47.5217 0 45.0021 2.52002 45.0021 5.6261C45.0021 8.73217 47.5217 11.2522 50.6274 11.2522ZM59.1826 52.9908C58.0809 51.889 56.2996 51.889 55.2097 52.9908C53.7916 54.4091 51.6353 54.7959 49.9242 54.0105L34.0093 45.7824L39.7752 37.1323C41.2636 34.9053 40.9706 31.9164 39.072 30.0293L34.3374 25.2823L21.7976 19.0584C21.4577 21.3909 22.1961 23.7468 23.8719 25.4347L32.6732 34.2489L27.294 42.313L4.10127 30.3223C2.7301 29.6191 1.03078 30.1465 0.315897 31.5296C-0.398988 32.9127 0.140106 34.6122 1.523 35.3155L47.4514 59.0506C48.846 59.6953 50.3227 60 51.7993 60C54.5182 60 57.1903 58.9451 59.1826 56.9525C60.2725 55.8625 60.2725 54.0809 59.1826 52.9908ZM14.0628 10.7365L12.715 13.3737C14.4026 14.2293 16.3715 13.948 17.731 12.8111L23.2625 15.5538C23.2508 15.5655 23.2508 15.5773 23.2391 15.589L36.6578 22.2465L40.4549 20.7228L41.205 22.9615C41.6738 24.3798 42.6816 25.5401 44.0176 26.2082L50.8266 29.6073C52.69 30.5333 54.9284 29.7832 55.8543 27.9312C56.7801 26.0793 56.03 23.8289 54.1784 22.9029L48.0726 19.8437L46.0685 13.8425C45.1193 11.0061 41.2753 7.20844 36.1656 9.2479L26.6494 13.0572L19.3248 9.42372C19.36 7.72417 18.481 6.0715 16.8754 5.25103L15.5746 7.79449H15.5512L11.5197 6.97402C11.3087 6.92713 11.0861 6.99746 10.9337 7.17328C10.711 7.43114 10.7345 7.81793 10.9923 8.04063L14.0628 10.7365Z" fill="#01737E"/>
</svg>
