<svg width="60" height="60" viewBox="0 0 60 60" fill="none" xmlns="http://www.w3.org/2000/svg">
<path fill-rule="evenodd" clip-rule="evenodd" d="M58.4542 5.12173L54.8784 1.54517C52.4671 -0.873002 48.3985 -0.391829 46.6285 2.56118L40.8625 11.6503L40.7313 16.0478L16.142 40.6333L11.6395 40.7676L2.55979 46.6301C-0.395521 48.4058 -0.870004 52.4653 1.54531 54.88L5.12103 58.4549C7.54009 60.8775 11.6046 60.3858 13.371 57.4389L18.8563 48.0083L19.1289 42.6172L42.6047 19.1449L48.1049 18.8669L57.4397 13.3699C60.3893 11.5974 60.8744 7.54107 58.4542 5.12173ZM36.6385 31.7915C36.5507 31.352 36.4099 30.9095 36.2497 30.4681L30.353 36.364C30.7942 36.5245 31.2362 36.6651 31.6756 36.7533C32.6919 36.9575 34.5749 37.117 35.7869 35.902C37.0005 34.6886 36.841 32.8058 36.6385 31.7915ZM44.3312 22.3896C50.4759 29.533 56.6948 39.0999 58.9896 46.7042C60.4592 51.5742 60.4567 55.7121 58.1078 58.0595C55.9472 60.2196 52.485 60.4105 48.4989 59.4423C39.592 57.2788 27.7337 49.1503 22.2663 44.4505L27.7024 39.0152C28.7807 39.5517 29.8826 39.9781 30.987 40.1994C33.6461 40.7322 36.3532 40.3076 38.2741 38.3871C40.0319 36.6313 40.6757 34.0432 40.0869 31.1016C39.8656 29.9968 39.4392 28.8952 38.9026 27.817L44.3312 22.3896ZM8.94566 0.0971317C5.99151 -0.206736 3.53319 0.30971 1.91423 1.92877C0.308399 3.53389 -0.212734 5.96378 0.075495 8.88421C0.865165 16.8899 7.54483 28.4984 14.8195 36.986L20.2309 31.5754C18.2581 27.6388 18.3508 23.513 20.8728 20.9905C23.3946 18.4718 27.5211 18.3779 31.4594 20.349L36.8716 14.9375C28.4096 7.68691 16.9515 0.920961 8.94566 0.0971317ZM22.9029 28.9026C22.1003 26.7238 22.1721 24.6614 23.3578 23.4748C24.7579 22.075 26.9077 22.3592 28.7676 23.0389L22.9029 28.9026Z" fill="#01737E"/>
</svg>
