<svg width="60" height="60" viewBox="0 0 60 60" fill="none" xmlns="http://www.w3.org/2000/svg">
<path fill-rule="evenodd" clip-rule="evenodd" d="M54.0121 13.6364C53.1752 7.62976 51.9066 2.20048 50.0246 1.45368C47.5751 0.480042 32.9384 0.0709516 29.9671 0C27.0585 0.0709516 12.4217 0.480042 9.96971 1.45636C8.08794 2.2031 6.8194 7.6301 5.9824 13.6364H1.30434C0.584365 13.6364 0 14.2473 0 15.0001V20.4546C0 21.2074 0.584365 21.8183 1.30434 21.8183H5.2171V23.4791L0.988615 24.5863C0.40694 24.7391 0 25.2846 0 25.9091V32.7272H59.9976V25.9091C59.9976 25.2846 59.5907 24.7391 59.0089 24.5863L54.7804 23.4791V21.8183H58.6934C59.4134 21.8183 59.9978 21.2074 59.9978 20.4546V15.0001C59.9978 14.2473 59.4134 13.6364 58.6934 13.6364H54.0121ZM51.7041 16.2689C50.9577 10.3529 49.8495 4.75229 48.9707 3.92995C47.5307 3.37909 36.5329 2.89086 29.9671 2.72723C23.4639 2.89086 12.466 3.37909 10.8983 4.0009C10.1222 4.76412 9.03393 10.3563 8.29154 16.2714C11.4962 15.7556 24.9567 13.6364 29.9988 13.6364C35.0388 13.6364 48.4906 15.7539 51.7041 16.2689ZM59.4547 45.5536C59.1156 45.2973 58.6773 45.2208 58.2808 45.3681L56.0192 46.1563C55.6175 46.2927 55.2 46.3635 54.7801 46.3635H49.7247C49.1273 46.3635 48.603 46.7889 48.4595 47.3971L48.1439 48.7198C47.9952 49.3443 47.7056 49.9144 47.2805 50.4217C47.0717 50.6698 46.957 50.9889 46.957 51.3217V55.909C46.957 58.1645 48.7126 59.9999 50.8699 59.9999H56.0871C58.2445 59.9999 60 58.1645 60 55.909V46.658C59.9973 46.2218 59.7964 45.8099 59.4547 45.5536ZM11.856 48.72C12.0047 49.3445 12.2943 49.9172 12.7194 50.4218C12.9282 50.6699 13.043 50.989 13.043 51.3218V55.9091C13.043 58.1646 11.2875 60 9.13011 60H3.91289C1.75554 60 0 58.1646 0 55.9091V46.6582C0 46.2218 0.200902 45.8099 0.542668 45.5509C0.881744 45.2973 1.31742 45.2209 1.71653 45.3654L3.97818 46.1536C4.37986 46.2927 4.7972 46.3636 5.21722 46.3636H10.2727C10.8727 46.3636 11.3943 46.7891 11.5404 47.3972L11.856 48.72ZM16.9557 27.2728C17.6761 27.2728 18.26 26.6622 18.26 25.9091C18.26 25.156 17.6761 24.5454 16.9557 24.5454C16.2353 24.5454 15.6514 25.156 15.6514 25.9091C15.6514 26.6622 16.2353 27.2728 16.9557 27.2728ZM13.043 25.9091C13.043 28.1646 14.7985 30 16.9559 30C19.1131 30 20.8688 28.1646 20.8688 25.9091C20.8688 23.6536 19.1132 21.8182 16.9559 21.8182C14.7985 21.8182 13.043 23.6536 13.043 25.9091ZM24.7815 31.3637C25.5015 31.3637 26.0859 30.7527 26.0859 30L26.086 25.9091C26.086 25.1564 25.5016 24.5454 24.7817 24.5454C24.0617 24.5454 23.4773 25.1564 23.4773 25.9091V30C23.4773 30.7527 24.0616 31.3637 24.7815 31.3637ZM29.9988 31.3637C30.7187 31.3637 31.3031 30.7527 31.3031 30V25.9091C31.3031 25.1564 30.7187 24.5454 29.9988 24.5454C29.2788 24.5454 28.6944 25.1564 28.6944 25.9091V30C28.6944 30.7527 29.2788 31.3637 29.9988 31.3637ZM35.216 31.3637C35.9359 31.3637 36.5203 30.7527 36.5203 30V25.9091C36.5203 25.1564 35.9359 24.5454 35.216 24.5454C34.496 24.5454 33.9116 25.1564 33.9116 25.9091V30C33.9116 30.7527 34.496 31.3637 35.216 31.3637ZM39.1289 25.9091C39.1289 28.1646 40.8844 30 43.0417 30C45.1991 30 46.9546 28.1646 46.9546 25.9091C46.9546 23.6536 45.1991 21.8182 43.0417 21.8182C40.8844 21.8182 39.1289 23.6536 39.1289 25.9091ZM43.0426 27.2728C43.763 27.2728 44.3469 26.6622 44.3469 25.9091C44.3469 25.156 43.763 24.5454 43.0426 24.5454C42.3223 24.5454 41.7383 25.156 41.7383 25.9091C41.7383 26.6622 42.3223 27.2728 43.0426 27.2728ZM0 40.9092V35.4546H59.9976V40.9092C59.9976 41.4956 59.6376 42.0164 59.1055 42.2019L55.1926 43.5656C55.0596 43.612 54.9213 43.6365 54.7804 43.6365H46.6703L45.6113 48.0574C45.4677 48.6655 44.9434 49.091 44.3461 49.091H15.6515C15.0542 49.091 14.5299 48.6655 14.3838 48.0574L13.3273 43.6365H5.21722C5.07636 43.6365 4.93806 43.612 4.80502 43.5656L0.892138 42.2019C0.359985 42.0164 0 41.4956 0 40.9092ZM16.9559 42.2727C16.9559 43.7753 18.1245 44.9999 19.5644 44.9999C21.0044 44.9999 22.173 43.7753 22.173 42.2727C22.173 40.7701 21.0044 39.5455 19.5644 39.5455C18.1245 39.5455 16.9559 40.7701 16.9559 42.2727ZM37.8246 42.2727C37.8246 43.7753 38.9933 44.9999 40.4332 44.9999C41.8731 44.9999 43.0417 43.7753 43.0417 42.2727C43.0417 40.7701 41.8731 39.5455 40.4332 39.5455C38.9933 39.5455 37.8246 40.7701 37.8246 42.2727Z" fill="#01737E"/>
</svg>
