<svg width="70" height="70" viewBox="0 0 70 70" fill="none" xmlns="http://www.w3.org/2000/svg">
<path d="M10.8254 38.6833C10.181 38.8981 9.59552 39.26 9.11522 39.7403C8.63493 40.2206 8.27304 40.8061 8.05822 41.4505L0 65.625L0.641212 66.2662L13.341 53.5665C13.2508 53.2165 13.1264 52.8788 13.1264 52.5001C13.1264 50.0842 15.0856 48.1251 17.5014 48.1251C19.9172 48.1251 21.8764 50.0842 21.8764 52.5001C21.8764 54.9159 19.9172 56.875 17.5014 56.875C17.1227 56.875 16.785 56.7506 16.435 56.6604L3.73516 69.3602L4.37501 70L28.5497 61.9418C29.1941 61.7272 29.7798 61.3654 30.2601 60.8851C30.7404 60.4048 31.1022 59.8191 31.3169 59.1746L35.8382 47.6807L22.3194 34.162L10.8254 38.6833ZM50.4835 3.87211L25.4489 31.146L38.8268 44.5239L66.1009 19.4894C77.7111 9.226 60.6663 -7.64777 50.4835 3.87211Z" fill="white"/>
</svg>
