<svg width="70" height="70" viewBox="0 0 70 70" fill="none" xmlns="http://www.w3.org/2000/svg">
<path d="M67.8792 50.1142L56 43.7499V70H68.25C69.2169 70 70 69.0211 70 67.8125V54.1351C70 53.279 69.7991 52.4417 69.4221 51.727C69.0451 51.0123 68.5087 50.4515 67.8792 50.1142ZM0 54.1351V67.8125C0 69.0211 0.783125 70 1.75 70H14V43.7499L2.12078 50.1142C1.49134 50.4515 0.954898 51.0123 0.577926 51.727C0.200955 52.4417 1.44813e-05 53.279 0 54.1351ZM50.8003 33.7256L45.5 29.7498V14.0312C45.5 12.8704 45.1314 11.7589 44.4741 10.9372L36.237 0.640872C35.5534 -0.213624 34.4455 -0.213624 33.763 0.640872L25.5259 10.9372C24.8697 11.7575 24.5 12.8704 24.5 14.0312V29.7498L19.1997 33.7256C18.6813 34.1142 18.2523 34.664 17.9544 35.3215C17.6566 35.9789 17.5 36.7216 17.5 37.4772V70H28V56.8749C28 52.0419 31.1347 48.1249 35 48.1249C38.8653 48.1249 42 52.0419 42 56.8749V70H52.5V37.4772C52.5 35.9405 51.8547 34.5158 50.8003 33.7256Z" fill="white"/>
</svg>
