<svg width="70" height="70" viewBox="0 0 70 70" fill="none" xmlns="http://www.w3.org/2000/svg">
<path d="M67.0835 18.2831L58.3919 18.2801L58.9956 15.1235C59.0831 15.1022 59.1706 15.1113 59.2581 15.0808L68.0081 12.0338C69.5335 11.5006 70.359 9.77598 69.8485 8.1793C69.341 6.58262 67.7019 5.71422 66.1619 6.25054L60.3053 8.29199L61.1949 3.64535C61.5099 1.99697 60.4833 0.391152 58.9053 0.0620753C57.3215 -0.270001 55.7902 0.799498 55.4752 2.45088L52.7306 16.781L50.7765 18.8224L45.1999 21.7354L46.5795 15.9766C46.9732 14.3433 46.0195 12.6888 44.4561 12.2806C42.8927 11.8601 41.312 12.8656 40.9211 14.4957L38.0045 26.6837C37.9461 26.9275 37.917 27.1743 37.917 27.4241V33.1951C37.6282 33.2804 37.3191 33.3475 37.0623 33.4572C35.7936 33.9844 34.2127 33.9844 32.9352 33.4572C32.6786 33.3475 32.3693 33.2805 32.0836 33.1951V27.4241C32.0836 27.1743 32.0545 26.9275 31.9961 26.6837L29.0795 14.4957C28.6886 12.8656 27.0991 11.8631 25.5444 12.2806C23.9811 12.689 23.0303 14.3435 23.4211 15.9766L24.8007 21.7354L19.2241 18.8224L17.2699 16.781L14.5279 2.45088C14.2129 0.802498 12.6963 -0.276142 11.095 0.0620753C9.51715 0.391152 8.49039 1.99697 8.8084 3.64535L9.69803 8.29199L3.84126 6.2504C2.29538 5.71422 0.659122 6.58262 0.151621 8.17916C-0.358751 9.77584 0.466622 11.5003 1.995 12.0337L10.745 15.0806C10.8325 15.111 10.9171 15.1019 11.0047 15.1233L11.6084 18.28L2.91676 18.283C1.30375 18.2831 0 19.6481 0 21.3301C0 23.012 1.30662 24.377 2.91663 24.377L16.8058 24.374L26.2501 29.3072V33.4785C25.6347 33.8076 25.0572 34.2098 24.5817 34.743C23.9429 35.459 23.4645 36.3488 23.0738 37.336C21.2013 35.7546 18.9992 34.6547 16.6338 34.2159C14.6884 33.8533 12.6 33.765 10.4213 33.9538C9.3684 34.0422 8.44664 34.7217 8.00627 35.7242C7.57164 36.7267 7.68539 37.8997 8.30964 38.7894C8.32715 38.8139 9.94303 41.1539 10.713 43.4148C12.0722 47.4215 14.8577 50.4686 18.3577 51.7758C20.0289 52.4004 22.5577 52.6838 24.7131 52.6991C25.8564 55.0604 26.5214 57.1873 26.5534 58.7474C26.4718 59.8382 26.3259 64.3264 28.9451 67.3582C29.9834 68.5649 31.8822 70 35.0001 70C38.1179 70 40.0167 68.5649 41.0551 67.3582C43.6772 64.3264 43.5285 59.8382 43.4497 58.7474C43.4788 57.1873 44.1438 55.0574 45.2901 52.6991C47.4426 52.6838 49.9742 52.4004 51.6426 51.7758C55.1426 50.4686 57.928 47.4217 59.2872 43.4179C60.0631 41.1388 61.6789 38.8108 61.6935 38.7864C62.3148 37.8967 62.4285 36.7236 61.991 35.7212C61.5506 34.7218 60.6289 34.0422 59.5789 33.954C57.4001 33.765 55.3117 33.8534 53.3692 34.2161C51.0067 34.6548 48.8076 35.7488 46.938 37.327C46.6142 36.5196 46.238 35.7639 45.7451 35.1332C45.1967 34.4293 44.5055 33.8961 43.7501 33.4908V29.3072L53.1942 24.374L67.0834 24.377C68.6934 24.377 70 23.012 70 21.3301C70 19.6481 68.6964 18.2831 67.0835 18.2831ZM20.3234 46.0383C18.48 45.3497 16.9809 43.6494 16.2109 41.3793C16.0825 40.9984 15.9368 40.6206 15.7822 40.2488C18.378 40.7912 20.6618 42.6834 21.9159 45.3404L22.2922 46.1418L22.3709 46.4587C21.4988 46.352 20.7579 46.1998 20.3234 46.0383ZM47.711 46.1418L48.0872 45.3374C49.3385 42.6835 51.6194 40.7943 54.2181 40.2488C54.0635 40.6206 53.9177 40.9984 53.7922 41.3793C53.0194 43.6493 51.5201 45.3495 49.6769 46.0383C49.2422 46.1998 48.5015 46.352 47.6293 46.4587L47.711 46.1418Z" fill="white"/>
</svg>
