<svg width="80" height="80" viewBox="0 0 80 80" fill="none" xmlns="http://www.w3.org/2000/svg">
<path d="M40 0C17.9032 0 0 17.9032 0 40C0 62.0968 17.9032 80 40 80C62.0968 80 80 62.0968 80 40C80 17.9032 62.0968 0 40 0ZM49.2097 56.4677L34.9839 46.129C34.4839 45.7581 34.1935 45.1774 34.1935 44.5645V17.4194C34.1935 16.3548 35.0645 15.4839 36.129 15.4839H43.871C44.9355 15.4839 45.8065 16.3548 45.8065 17.4194V39.629L56.0484 47.0806C56.9194 47.7097 57.0968 48.9194 56.4677 49.7903L51.9194 56.0484C51.2903 56.9032 50.0806 57.0968 49.2097 56.4677Z" fill="#01737E"/>
</svg>
