<svg width="90" height="77" viewBox="0 0 90 77" fill="none" xmlns="http://www.w3.org/2000/svg">
<path d="M45 0C34.1266 0 25.3125 8.39031 25.3125 18.741C25.3125 27.109 38.1797 42.3606 43.1094 47.8966C44.1078 49.0181 45.8937 49.0181 46.8906 47.8966C51.8203 42.3606 64.6875 27.109 64.6875 18.741C64.6875 8.39031 55.8734 0 45 0ZM45 24.988C41.375 24.988 38.4375 22.1917 38.4375 18.741C38.4375 15.2903 41.375 12.494 45 12.494C48.625 12.494 51.5625 15.2903 51.5625 18.741C51.5625 22.1917 48.625 24.988 45 24.988ZM3.14375 32.12C2.2159 32.4732 1.42052 33.083 0.860171 33.8707C0.299826 34.6583 0.00022222 35.5877 0 36.539L0 73.7711C0 75.4548 1.78594 76.606 3.42813 75.9813L25 66.6346V31.9668C23.6187 29.5899 22.4891 27.2756 21.6797 25.0623L3.14375 32.12ZM45 53.4966C42.8016 53.4966 40.7219 52.5774 39.2953 50.974C36.2234 47.5233 32.9562 43.5936 30 39.5628V66.6331L60 76.1524V39.5643C57.0438 43.5936 53.7781 47.5248 50.7047 50.9755C49.2781 52.5774 47.1984 53.4966 45 53.4966ZM86.5719 23.9706L65 33.3173V76.1538L86.8562 67.832C87.7842 67.4789 88.5797 66.8691 89.1401 66.0814C89.7005 65.2937 90 64.3643 90 63.413V26.1809C90 24.4971 88.2141 23.3459 86.5719 23.9706Z" fill="#01737E"/>
</svg>
