<svg width="950" height="170" viewBox="0 0 950 170" fill="none" xmlns="http://www.w3.org/2000/svg">
<path d="M212.05 53.84C214.162 53.84 215.858 54.544 217.138 55.952C218.482 57.296 219.154 59.056 219.154 61.232V115.76C219.154 117.872 218.546 119.536 217.33 120.752C216.114 121.968 214.514 122.576 212.53 122.576C210.61 122.576 209.042 121.968 207.826 120.752C206.61 119.536 206.002 117.872 206.002 115.76V81.872L192.37 107.504C191.474 109.168 190.482 110.384 189.394 111.152C188.37 111.92 187.122 112.304 185.65 112.304C184.242 112.304 182.994 111.92 181.906 111.152C180.818 110.384 179.826 109.168 178.93 107.504L165.298 82.352V115.76C165.298 117.808 164.69 119.472 163.474 120.752C162.258 121.968 160.658 122.576 158.674 122.576C156.754 122.576 155.186 121.968 153.97 120.752C152.754 119.536 152.146 117.872 152.146 115.76V61.232C152.146 59.056 152.786 57.296 154.066 55.952C155.41 54.544 157.138 53.84 159.25 53.84C162.322 53.84 164.658 55.472 166.258 58.736L185.746 95.696L205.138 58.736C206.866 55.472 209.17 53.84 212.05 53.84ZM248.223 73.712C255.967 73.712 262.015 75.824 266.367 80.048C270.783 84.208 272.991 90.032 272.991 97.52C272.991 102.512 271.903 106.928 269.727 110.768C267.551 114.544 264.479 117.488 260.511 119.6C256.607 121.712 252.127 122.768 247.071 122.768C242.015 122.768 237.471 121.872 233.439 120.08C232.159 119.504 231.199 118.736 230.559 117.776C229.919 116.816 229.599 115.792 229.599 114.704C229.599 113.296 230.047 112.112 230.943 111.152C231.839 110.192 233.023 109.712 234.495 109.712C235.327 109.712 236.127 109.84 236.895 110.096C238.623 110.736 240.095 111.184 241.311 111.44C242.591 111.696 244.031 111.824 245.631 111.824C248.959 111.824 251.679 111.088 253.791 109.616C255.903 108.144 257.183 105.968 257.631 103.088H243.711C242.111 103.088 240.831 102.64 239.871 101.744C238.911 100.784 238.431 99.536 238.431 98C238.431 96.464 238.911 95.248 239.871 94.352C240.831 93.392 242.111 92.912 243.711 92.912H257.535C257.023 90.16 255.775 88.112 253.791 86.768C251.807 85.36 249.215 84.656 246.015 84.656C244.735 84.656 243.615 84.784 242.655 85.04C241.695 85.232 240.511 85.52 239.103 85.904C237.375 86.48 235.999 86.768 234.975 86.768C233.439 86.768 232.191 86.256 231.231 85.232C230.271 84.208 229.791 83.024 229.791 81.68C229.791 79.376 231.007 77.68 233.439 76.592C235.551 75.696 237.887 74.992 240.447 74.48C243.071 73.968 245.663 73.712 248.223 73.712ZM310.486 73.712C314.518 73.712 318.102 74.768 321.238 76.88C324.438 78.928 326.902 81.84 328.63 85.616C330.422 89.328 331.318 93.616 331.318 98.48C331.318 103.344 330.422 107.632 328.63 111.344C326.902 114.992 324.47 117.808 321.334 119.792C318.198 121.776 314.582 122.768 310.486 122.768C307.286 122.768 304.374 122.128 301.75 120.848C299.19 119.504 297.206 117.648 295.798 115.28V133.424C295.798 135.344 295.158 136.88 293.878 138.032C292.598 139.184 290.902 139.76 288.79 139.76C286.55 139.76 284.726 139.152 283.318 137.936C281.974 136.72 281.302 135.12 281.302 133.136V80.72C281.302 78.672 281.942 77.04 283.222 75.824C284.566 74.544 286.326 73.904 288.502 73.904C290.678 73.904 292.406 74.544 293.686 75.824C294.966 77.04 295.606 78.672 295.606 80.72V81.488C297.014 79.056 299.03 77.168 301.654 75.824C304.278 74.416 307.222 73.712 310.486 73.712ZM306.262 111.728C309.654 111.728 312.278 110.608 314.134 108.368C315.99 106.064 316.918 102.768 316.918 98.48C316.918 94.128 315.99 90.768 314.134 88.4C312.278 85.968 309.654 84.752 306.262 84.752C302.87 84.752 300.246 85.936 298.39 88.304C296.534 90.608 295.606 93.936 295.606 98.288C295.606 102.576 296.534 105.904 298.39 108.272C300.246 110.576 302.87 111.728 306.262 111.728ZM370.705 79.856C372.305 77.488 373.777 75.92 375.121 75.152C376.465 74.32 378.321 73.904 380.689 73.904C382.929 73.904 384.689 74.512 385.969 75.728C387.249 76.944 387.889 78.576 387.889 80.624V115.568C387.889 117.68 387.249 119.376 385.969 120.656C384.753 121.936 383.121 122.576 381.073 122.576C379.025 122.576 377.361 121.936 376.081 120.656C374.865 119.376 374.257 117.68 374.257 115.568V92.336L356.785 117.008C355.249 119.248 353.777 120.752 352.369 121.52C350.961 122.224 349.233 122.576 347.185 122.576C344.945 122.576 343.153 122 341.809 120.848C340.529 119.632 339.889 117.968 339.889 115.856V80.912C339.889 78.8 340.529 77.104 341.809 75.824C343.089 74.544 344.753 73.904 346.801 73.904C348.849 73.904 350.481 74.544 351.697 75.824C352.977 77.104 353.617 78.8 353.617 80.912V104.048L370.705 79.856ZM661.077 122.576C658.837 122.576 657.045 121.904 655.701 120.56C654.421 119.216 653.781 117.424 653.781 115.184V96.656H646.581C641.781 96.656 638.133 98.896 635.637 103.376L626.805 118.832C626.101 120.048 625.205 120.976 624.117 121.616C623.093 122.192 622.005 122.48 620.853 122.48C618.997 122.48 617.301 121.84 615.765 120.56C614.293 119.216 613.557 117.648 613.557 115.856C613.557 114.576 613.909 113.36 614.613 112.208L620.277 102.8C621.813 100.24 623.573 98.224 625.557 96.752C627.605 95.216 629.717 94.16 631.893 93.584C626.773 92.688 622.741 90.48 619.797 86.96C616.917 83.376 615.477 79.376 615.477 74.96C615.477 68.368 617.621 63.28 621.909 59.696C626.261 56.112 632.405 54.32 640.341 54.32H661.461C663.701 54.32 665.429 54.928 666.645 56.144C667.861 57.36 668.469 59.088 668.469 61.328V115.184C668.469 117.424 667.797 119.216 666.453 120.56C665.109 121.904 663.317 122.576 661.077 122.576ZM653.973 65.744H642.357C638.133 65.744 634.933 66.64 632.757 68.432C630.581 70.224 629.493 72.72 629.493 75.92C629.493 79.12 630.485 81.488 632.469 83.024C634.453 84.56 637.557 85.328 641.781 85.328H653.973V65.744ZM687.779 122.576C685.539 122.576 683.747 121.968 682.403 120.752C681.123 119.536 680.483 117.872 680.483 115.76V80.72C680.483 78.608 681.123 76.944 682.403 75.728C683.747 74.512 685.539 73.904 687.779 73.904C690.019 73.904 691.779 74.512 693.059 75.728C694.339 76.944 694.979 78.608 694.979 80.72V92.432H712.835V80.72C712.835 78.608 713.475 76.944 714.755 75.728C716.035 74.512 717.795 73.904 720.035 73.904C722.275 73.904 724.035 74.512 725.315 75.728C726.659 76.944 727.331 78.608 727.331 80.72L727.523 115.184C727.523 117.424 726.851 119.216 725.507 120.56C724.163 121.904 722.371 122.576 720.131 122.576C717.891 122.576 716.099 121.904 714.755 120.56C713.475 119.216 712.835 117.424 712.835 115.184V103.568H694.979V115.76C694.979 117.872 694.339 119.536 693.059 120.752C691.779 121.968 690.019 122.576 687.779 122.576Z" fill="#01737E"/>
<path fill-rule="evenodd" clip-rule="evenodd" d="M70.7263 30.4106C69.9117 30.6328 68.949 30.9846 68.5973 31.2068C67.8567 31.6882 67.7271 31.7253 64.6539 32.0956C62.5989 32.3548 62.2287 32.4659 61.8399 32.8548C61.5807 33.114 61.3771 33.3732 61.3771 33.4658C61.3771 33.7991 62.2657 34.3731 62.9877 34.5027C63.4135 34.5583 64.08 34.7805 64.4688 34.9841C65.3389 35.4285 65.6536 35.4285 66.5793 34.9656C67.1347 34.6694 67.3939 34.6323 67.6716 34.7805C67.9493 34.9286 68.0419 34.9286 68.0419 34.7249C68.0419 34.262 68.8935 33.6695 69.8191 33.5028C71.5224 33.1695 74.3549 32.54 75.873 32.1882C76.7061 31.9845 77.4466 31.8179 77.5207 31.8179C77.5947 31.8179 77.6317 32.0586 77.6317 32.3548C77.6132 33.2066 76.9097 33.4843 74.8177 33.4843C72.2999 33.4843 72.4295 33.9472 75.0769 34.4101C76.3543 34.6323 76.5395 34.7249 77.6132 35.6692C78.7055 36.6321 78.7981 36.7987 79.2424 38.2245C79.7978 40.0576 79.7978 40.1502 79.3164 40.7797C78.9647 41.2427 78.8166 41.2797 77.8724 41.2427L76.8357 41.1871L76.8727 41.7426C77.0208 44.1497 78.1686 46.4272 79.6497 47.2419C80.5013 47.6863 80.5568 47.7048 80.9271 47.4086C81.4084 47.0012 82.2786 45.8532 82.908 44.7422C83.5005 43.7238 83.7226 43.5757 85.5184 43.0943C87.3882 42.5758 87.8511 42.3721 87.8511 42.0203C87.8511 41.8537 88.1103 41.613 88.462 41.4834C89.3321 41.1501 93.4606 40.3354 94.3122 40.3354C94.8861 40.3354 95.2194 40.2057 95.7007 39.7799C96.3116 39.2429 96.3487 39.1503 96.3116 38.0578C96.2746 36.4284 96.5153 36.0766 97.6816 36.0766C98.6258 36.0766 99.8477 35.6692 100.107 35.2804C100.181 35.1508 100.255 34.799 100.255 34.4842C100.255 33.8176 100.884 33.1695 102.106 32.5585C102.48 32.3793 102.805 32.2001 102.936 32.1277L102.936 32.1277C102.967 32.1104 102.988 32.0992 102.995 32.0956C103.032 32.0586 102.865 31.8364 102.625 31.5771C102.143 31.0587 101.162 30.8365 99.7921 30.9106C99.2923 30.9291 96.4042 30.9661 93.4051 30.9661C88.6657 30.9846 87.8696 30.9476 87.3882 30.6884C86.8884 30.4106 86.7032 30.3921 85.4443 30.6328C83.3709 31.0402 77.2615 30.7809 73.9846 30.1514C72.7257 29.9107 72.5406 29.9292 70.7263 30.4106ZM38.7167 37.021C37.8281 37.6321 37.3097 38.0394 37.3097 38.132C37.3097 38.1875 37.5134 38.2431 37.7911 38.2616C38.0502 38.2801 38.4205 38.3727 38.6056 38.4838C38.7908 38.5764 39.2536 38.669 39.6239 38.669C39.9738 38.669 40.145 38.669 40.2139 38.7529C40.2799 38.8333 40.2521 38.9906 40.1978 39.2985C40.0867 39.8355 40.1422 39.9836 40.5495 40.3169C40.9568 40.6132 41.253 40.6687 42.1787 40.6317C42.8082 40.5947 43.5672 40.5021 43.8449 40.428C44.1596 40.354 44.6595 40.3725 45.0483 40.5021C45.6407 40.6872 45.9369 40.6502 47.1773 40.2984L48.6213 39.8725L48.6954 38.706C48.7139 38.0764 48.6769 37.558 48.5843 37.558C48.4917 37.558 48.103 37.6876 47.7142 37.8543C47.3439 38.0209 46.6959 38.169 46.2887 38.2061C45.8814 38.2246 45.2889 38.3172 44.9742 38.3912C44.4744 38.5023 44.2522 38.3912 43.2155 37.595C42.1047 36.7433 41.9195 36.6692 40.7532 36.5951C39.6054 36.5211 39.4202 36.5766 38.7167 37.021ZM58.7665 38.817C58.5444 38.2615 58.5444 38.2244 59.2479 37.6134L59.9699 37.0024L60.3587 37.3727C60.5808 37.5764 60.7845 37.706 60.84 37.669C60.8771 37.6319 61.5991 37.4468 62.4507 37.2801L63.9688 36.9653L65.0796 37.5393C65.6905 37.8541 66.5606 38.1689 67.0235 38.243C68.0047 38.3726 68.3934 38.7244 68.0972 39.2243C67.9121 39.4836 67.9862 39.6502 68.523 40.1687C69.2451 40.8538 69.6153 41.7981 69.4302 42.5017L69.4254 42.5225C69.3881 42.6846 69.3641 42.7889 69.2985 42.8403C69.1799 42.9331 68.9253 42.8523 68.2102 42.6252L68.1713 42.6128C67.8381 42.5202 67.8381 42.5573 68.2083 43.2609C68.5971 44.02 68.7267 44.7792 68.4675 44.7792C68.3749 44.7607 68.1157 44.6496 67.8751 44.52C67.6159 44.3719 67.3012 44.2978 67.1716 44.3533C66.8383 44.483 66.8754 45.2421 67.2086 45.5199C67.9306 46.1124 67.2086 46.5938 66.0608 46.2605C64.9685 45.9643 62.7654 44.7237 62.7654 44.4089C62.7654 44.2608 63.1912 43.9275 63.7096 43.6682C65.4869 42.798 65.5239 42.6684 64.7834 40.8167C64.5036 40.1171 64.3864 39.8242 64.1701 39.6761C64.0143 39.5694 63.807 39.5378 63.4504 39.4836C62.9691 39.4095 62.2655 39.2428 61.8583 39.1132C60.8215 38.7429 60.3772 38.7985 59.9144 39.3354C59.433 39.8909 59.1553 39.7613 58.7665 38.817ZM53.6014 38.8353C53.3052 38.9093 52.9719 39.2796 52.6757 39.7981C52.0833 40.872 51.4724 41.6312 50.8985 42.0201C50.4541 42.2978 50.3616 42.2978 49.2878 41.8534C48.3251 41.4646 47.8067 41.372 45.9554 41.335L43.7708 41.2979L43.1044 41.9275C42.5119 42.483 42.4009 42.5385 42.1417 42.2978C41.975 42.1497 41.3456 41.9275 40.7347 41.7979C39.3647 41.5201 38.9574 41.3164 39.087 41.0017C39.161 40.8165 38.6797 40.7424 36.9024 40.6499C35.662 40.5758 34.1624 40.4277 33.57 40.298C32.163 40.0018 29.2749 40.3166 27.22 41.0017C25.2761 41.6312 24.3504 41.5572 23.5914 40.6869C23.2951 40.3351 22.9619 39.8722 22.8693 39.6315C22.7027 39.2426 22.5916 39.2241 20.5737 39.2241C19.4259 39.2241 17.8152 39.3537 17.0191 39.5018C16.2046 39.65 14.7605 39.7981 13.7793 39.8537C12.8166 39.9092 11.6873 40.0573 11.28 40.2055C10.8912 40.3721 10.1322 40.5388 9.59531 40.5943C8.63262 40.6869 6.76278 41.372 6.76278 41.6312C6.76278 41.7053 6.89237 41.8719 7.04047 42.0015C7.39223 42.2978 7.39223 42.8163 7.05899 43.094C6.85534 43.2607 6.5221 43.2421 5.57792 42.9829C4.37456 42.6681 4.35605 42.6681 3.85619 43.057C3.20822 43.5199 3.20822 43.8532 3.83768 44.205C4.28199 44.4642 4.35605 44.4642 4.68929 44.1494C4.91145 43.9643 5.2632 43.8532 5.57792 43.8902L6.07778 43.9458L5.57792 44.5383C5.00401 45.2049 4.1524 45.5196 2.80093 45.5196C2.11594 45.5196 1.70865 45.6493 1.00514 46.1122C0.505284 46.4269 0.079478 46.8158 0.0609647 46.9824L0.0595625 46.9973C-0.0110509 47.7438 -0.0417502 48.0683 0.0991205 48.2771C0.20747 48.4378 0.417318 48.5299 0.78857 48.6929C0.810808 48.7026 0.833626 48.7127 0.857036 48.723C1.76419 49.0933 1.93081 49.2784 1.57905 49.5006C1.26433 49.7043 1.37541 50.0191 1.72716 49.871C1.89378 49.7969 2.63431 49.5932 3.33782 49.4081C4.89293 49.0007 5.35577 48.797 6.18886 48.2045C6.94791 47.649 7.09601 47.6305 7.17007 48.0934C7.22561 48.4267 7.29966 48.4267 8.39194 47.9082L8.41776 47.8966C8.77426 47.7359 9.03131 47.62 9.30043 47.5516C9.996 47.3749 10.7722 47.5158 13.5547 48.0206L13.6497 48.0379C15.0567 48.2971 15.4825 48.4452 15.5751 48.7044C15.6306 48.8896 15.7787 49.0377 15.9083 49.0377C16.0379 49.0377 16.3712 49.2414 16.6489 49.5006C17.0932 49.908 17.1302 50.0561 17.1302 51.4263C17.1302 52.2411 17.0377 53.1298 16.9451 53.4076C16.797 53.7779 16.834 54.3334 17.1302 55.6295C17.6116 57.8885 17.6116 58.0737 17.0377 58.2218C16.7044 58.2959 16.5193 58.5366 16.3712 59.0365C16.2601 59.4069 15.7602 60.2586 15.2604 60.9067C14.7605 61.5547 14.057 62.5546 13.6867 63.1101C13.3165 63.6656 12.7611 64.3877 12.4649 64.721C12.2831 64.9089 12.1608 65.0353 12.0818 65.1845C11.9194 65.4914 11.9398 65.895 12.002 67.1282C12.1316 69.7945 12.4649 70.7203 13.6867 71.6091L14.6679 72.3312L14.779 73.8125C14.8346 74.6087 14.9642 75.479 15.0567 75.7197C15.1678 75.9604 15.3715 76.627 15.5381 77.1825C15.7602 77.9972 17.1302 80.5154 17.1302 80.1266C17.1302 79.5526 16.3527 76.5344 16.0564 75.9604C15.4455 74.7754 15.3715 73.9977 15.8158 73.5903C16.1675 73.2756 16.186 73.2756 16.6489 73.9792C16.8895 74.368 17.1672 75.0161 17.2413 75.4234C17.3894 76.2567 18.4817 78.5712 19.0001 79.1267C19.1852 79.3304 19.7406 80.2562 20.2404 81.1635C21.0921 82.7374 21.1476 82.904 21.055 83.9039C20.981 84.8853 20.9995 84.9593 21.4253 85.126C21.666 85.2186 22.2584 85.5889 22.7212 85.9407C24.554 87.3479 27.1089 88.3108 28.2012 87.996C29.2379 87.7183 29.386 87.7553 30.3672 88.4959C31.8113 89.5699 32.6444 89.9587 33.607 89.9587C34.3846 89.9587 34.4957 90.0328 35.2177 90.866C35.7176 91.44 36.0693 92.0696 36.1804 92.5881C36.384 93.4768 37.4763 94.5878 38.1613 94.5878C38.3835 94.5878 38.7537 94.7359 38.9944 94.9396C39.4943 95.3099 40.2718 95.6062 40.2718 95.4025C40.2718 95.3285 39.7535 94.7915 39.124 94.2175C38.0132 93.1806 37.9762 93.125 37.9206 92.0696C37.8651 91.4586 37.9206 90.3291 38.0132 89.5329C38.1613 88.0886 38.1613 88.0701 37.717 87.9034C37.1801 87.6997 35.2918 87.6442 34.7364 87.8294L34.3476 87.9405L34.7364 86.9591C36.2544 83.1633 36.273 82.9966 35.4213 82.7744C34.3661 82.4967 33.9403 82.7374 33.3664 83.9224C32.9591 84.7927 32.7184 85.0334 32.0704 85.3297C30.83 85.8852 28.9602 85.4222 28.0901 84.3298C27.3681 83.3855 27.4051 82.5522 28.3493 79.6452C29.0528 77.4602 29.312 76.9233 29.7007 76.6826C29.7818 76.6304 29.8901 76.562 30.0125 76.4846L30.0126 76.4845C30.2814 76.3146 30.6185 76.1015 30.8856 75.9234C31.515 75.4975 32.7925 75.0531 33.9958 74.8309C34.3661 74.7569 34.4957 74.8309 34.5697 75.1087C34.6438 75.3494 34.8845 75.4975 35.3843 75.5716C36.0693 75.6827 36.1434 75.6456 36.7913 74.8865L37.4763 74.0903L38.439 74.2569C39.3647 74.4236 40.531 75.0161 40.9383 75.5345C41.0494 75.6827 41.1975 76.2752 41.253 76.8492C41.3456 77.8861 41.8455 79.2193 42.1232 79.2193C42.1972 79.2193 42.4934 78.923 42.7711 78.5527C43.271 77.9046 43.2895 77.8491 43.0858 76.6455C42.6415 73.9792 42.6415 73.7755 43.2154 73.22C43.4931 72.9423 44.8076 71.9979 46.122 71.1092C47.7327 70.0167 48.6028 69.3131 48.7694 68.9427C48.9175 68.628 49.7321 67.7022 50.5837 66.8504C51.4168 65.9987 52.1203 65.2395 52.1203 65.1654C52.1203 64.8692 53.2496 64.4063 53.9531 64.4063C54.6196 64.4063 54.7122 64.3507 54.7122 63.9989C54.7122 63.4249 56.545 61.7399 57.5262 61.3881C57.9705 61.24 58.7666 60.9437 59.322 60.7215C60.081 60.4067 60.2662 60.3882 60.0996 60.5919C59.97 60.74 59.7108 60.9252 59.5256 60.9807C59.3405 61.0363 59.1924 61.24 59.1924 61.4066C59.1924 61.5733 59.1369 61.9436 59.0628 62.2213C58.8962 62.8879 59.0998 62.8694 60.081 62.1287C60.3415 61.9442 60.621 61.7343 60.8451 61.566L60.8452 61.5659L60.8455 61.5657C61.0035 61.447 61.1338 61.3491 61.2104 61.2955C61.377 61.1659 61.8028 61.0178 62.1545 60.9807C63.0802 60.8511 64.154 60.3142 64.154 59.9623C64.154 59.4809 64.0059 59.4439 63.1728 59.7402C62.2471 60.0734 60.6364 59.9253 60.6364 59.4994C60.6364 59.3513 60.9697 58.9995 61.377 58.7403C61.7843 58.4625 62.062 58.1663 62.0064 58.0737C61.9324 57.9626 61.1918 57.9441 60.0625 58.0181C58.4519 58.1292 58.2297 58.1107 58.2297 57.8515C58.2297 57.1108 60.692 56.4628 64.0614 56.3332C66.2275 56.2221 66.7643 56.148 67.3012 55.8147C68.2639 55.2407 69.5228 54.0371 69.5228 53.6668C69.5228 53.2594 68.6712 52.4632 68.5046 52.7225C68.3009 53.0743 68.0603 52.9447 67.7455 52.3151C67.5789 52.0003 67.2827 51.593 67.0791 51.4263C66.7458 51.1671 66.7273 51.0375 66.9124 49.7784C67.005 49.0192 67.0606 48.3526 67.005 48.26C66.8199 47.9638 66.2645 48.1119 65.0796 48.76C64.4132 49.1118 63.7282 49.4081 63.5615 49.4081C63.1543 49.4081 62.8025 48.76 62.9136 48.2045C63.0617 47.4083 62.3397 46.8158 60.8216 46.4269L59.4331 46.0936L58.4148 47.0935C57.6188 47.8712 57.3041 48.0749 56.9893 48.0008C56.6376 47.9082 56.5635 47.9823 56.4524 48.5748C56.3969 48.9452 56.3969 49.8154 56.4524 50.519L56.582 51.7967L56.0637 51.9263C55.786 51.9818 55.0639 52.2225 54.453 52.4262C53.3237 52.8521 53.2496 52.9447 52.8794 54.3519C52.6572 55.1851 52.2869 55.4259 51.5094 55.2407C50.6763 55.0185 50.3986 54.5371 50.5467 53.5742C50.6022 53.0928 50.7874 52.6669 50.9355 52.6114C51.4909 52.4077 51.1391 52.2411 49.3989 51.9263C48.0104 51.667 47.3624 51.4449 46.6404 50.9634C45.6037 50.2968 45.4555 50.0561 45.4555 49.1488C45.4555 48.6489 45.6407 48.3711 46.3627 47.686C47.5661 46.5565 50.3431 45.2234 52.1388 44.8901C52.9905 44.742 53.2682 44.4087 53.3977 43.4458L53.5088 42.6866L54.0827 43.1681C54.6567 43.6495 54.6752 43.6495 55.101 43.3162C55.8045 42.7792 56.6376 42.3904 57.6003 42.1867C58.674 41.946 59.7108 41.2053 59.7108 40.6869C59.7108 40.1869 59.2109 40.0388 58.8036 40.4091C58.5074 40.6869 56.1747 41.6127 55.786 41.6312C55.6934 41.6312 55.6379 41.3905 55.6379 41.1128C55.6379 40.7239 55.5083 40.5202 55.1565 40.3536C54.7122 40.1499 54.6752 40.0758 54.7862 39.4093C54.8973 38.7242 54.8603 38.6686 54.49 38.6871C54.2494 38.7056 53.8606 38.7612 53.6014 38.8353ZM45.8999 92.6252C46.2331 92.5511 46.4738 92.2919 46.6589 91.866C46.9737 91.1254 47.1218 91.1624 47.7327 92.2363C48.066 92.7918 48.1585 93.1807 48.0845 93.6251C48.0104 94.162 48.0474 94.2361 48.3251 94.1805C48.5473 94.1435 48.788 93.7361 49.0472 93.014C49.2693 92.403 49.4915 91.8845 49.5655 91.866C49.6396 91.8475 50.0654 91.9956 50.4912 92.1808C50.9355 92.3845 51.3983 92.5511 51.5279 92.5511C51.639 92.5511 51.7501 92.6252 51.7501 92.7363C51.7501 92.8474 52.5277 92.9214 53.694 92.9214C55.4713 92.9214 55.6379 92.9585 55.6379 93.2732C55.6379 93.6991 57.3411 94.8842 58.2298 95.0508C58.637 95.1434 59.248 95.5508 59.9885 96.2544C61.2474 97.4764 62.4878 98.1986 63.0062 98.0134C63.9318 97.7357 66.209 100.606 65.9313 101.698C65.8757 101.957 65.5055 102.476 65.1352 102.846L64.4502 103.531L65.0056 103.383C66.6163 102.957 67.4864 102.939 67.4864 103.365C67.4864 103.513 67.7085 103.568 68.1344 103.513C68.6527 103.457 68.9304 103.568 69.6524 104.142C69.8036 104.27 69.9512 104.395 70.0842 104.507C70.3746 104.751 70.5956 104.937 70.6337 104.976C70.6892 105.031 71.4297 105.105 72.2628 105.124C73.3921 105.142 74.0216 105.253 74.5399 105.513C74.9287 105.716 75.373 105.883 75.5397 105.883C75.6878 105.883 75.9655 106.031 76.1506 106.216C76.3357 106.401 77.0392 106.864 77.7242 107.253C78.9276 107.92 78.9646 107.957 78.9646 108.66C78.9646 109.734 78.5759 110.493 77.1873 112.067C76.743 112.567 76.021 114.993 75.8174 116.715C75.7248 117.53 75.5952 118.659 75.5212 119.215C75.4471 119.77 75.1139 120.955 74.7621 121.825C74.1882 123.27 74.0771 123.455 73.3551 123.807C72.9293 124.01 72.0407 124.325 71.3742 124.492C69.023 125.066 68.3935 125.51 68.8008 126.288C69.1156 126.88 68.8749 128.01 68.2454 128.991C67.9307 129.491 67.616 130.269 67.5604 130.75C67.4679 131.398 67.2457 131.843 66.6348 132.546C66.209 133.046 65.8017 133.62 65.7461 133.805C65.6906 133.972 65.3389 134.287 64.9871 134.472C64.4317 134.787 64.2651 134.787 63.506 134.583C63.0432 134.453 62.6174 134.268 62.5619 134.194C62.3952 133.898 62.1175 134.009 62.1175 134.361C62.1175 134.768 62.71 135.342 63.5616 135.768C63.8763 135.935 64.154 136.138 64.154 136.231C64.154 136.416 63.2468 137.657 62.6915 138.231C62.2471 138.694 61.9139 138.749 61.377 138.472C60.7105 138.12 60.4513 138.434 60.4513 139.582C60.4513 140.49 60.3958 140.656 60.0996 140.749C59.8959 140.805 59.5442 140.731 59.3035 140.619C59.0628 140.49 58.7666 140.416 58.637 140.471C58.3223 140.564 58.3593 141.156 58.7111 141.453C59.1924 141.841 59.5627 142.712 59.4146 143.156C59.3591 143.378 59.1369 143.73 58.9333 143.952C58.7481 144.175 58.5445 144.656 58.4704 145.026C58.4137 145.367 58.3859 145.533 58.4562 145.61C58.5235 145.683 58.6808 145.674 58.9888 145.656C59.2625 145.632 59.4172 145.618 59.5137 145.686C59.6392 145.775 59.6665 146.003 59.7293 146.526C59.8404 147.304 59.7849 147.6 59.3961 148.359C58.9518 149.248 58.9147 149.878 59.248 150.729C59.4701 151.285 58.3408 151.137 57.1004 150.47C55.8786 149.841 55.2491 149.081 54.0087 146.785C53.2312 145.378 53.2312 145.36 53.5829 144.934C54.1013 144.249 54.2309 143.675 53.9162 143.323C53.768 143.156 53.5459 142.675 53.4163 142.267C53.1386 141.397 52.7868 140.786 52.1574 140.101C51.7501 139.657 51.6946 139.36 51.4539 136.305C50.7689 127.454 50.5838 123.01 50.8615 121.548C51.0466 120.548 51.0466 120.437 50.6948 120.159C50.4912 119.992 50.269 119.715 50.2135 119.548C50.158 119.381 49.7877 119.141 49.3989 119.048C48.6954 118.863 47.418 117.918 45.1038 115.9C44.1226 115.048 43.7894 114.623 43.2895 113.475C42.1972 111.03 41.6789 110.105 40.6977 108.864C39.5498 107.438 39.4202 106.679 40.1793 106.179C40.7532 105.809 40.7532 105.475 40.2348 104.772C40.1053 104.59 40.009 104.466 39.9739 104.325C39.8833 103.965 40.1963 103.503 41.3827 101.717C41.9936 100.791 42.7897 99.4392 43.1599 98.6985C43.8079 97.4209 43.8264 97.3468 43.5302 97.0135C43.3451 96.8099 43.1599 96.3284 43.1044 95.9396C43.0118 95.273 43.0859 95.1619 44.2152 93.9954C44.8632 93.3103 45.6222 92.6992 45.8999 92.6252Z" fill="#01737E"/>
<path fill-rule="evenodd" clip-rule="evenodd" d="M840.122 44.1759C840.307 44.2263 841.131 44.2095 841.955 44.1422C844.242 43.9404 844.276 43.9404 844.814 44.2263C845.184 44.4114 845.571 44.445 846.362 44.3609C847.068 44.2936 847.589 44.3273 847.926 44.4618C848.212 44.5796 848.43 44.6974 848.43 44.7478C848.43 44.7815 848.161 45.0843 847.842 45.4207C846.883 46.4132 847.051 46.5814 849.019 46.5141C850.432 46.4637 850.819 46.5141 851.458 46.8001C852.383 47.2207 853.745 47.2543 855.007 46.8842C856.167 46.531 858.085 46.6824 859.06 47.187C859.531 47.4394 860.271 47.5908 861.364 47.6917C862.256 47.7758 863.299 47.9104 863.702 47.9945C864.089 48.0954 864.627 48.1627 864.88 48.1627C865.418 48.1627 866.545 47.288 866.78 46.6992C866.915 46.3291 866.965 46.3123 867.184 46.5478C867.335 46.6992 867.773 46.8842 868.159 47.002C868.546 47.1029 869.051 47.3048 869.286 47.4562C869.64 47.6917 870.312 47.759 873.239 47.8263C876.098 47.8935 876.855 47.9608 877.191 48.1795C877.477 48.3646 878.352 48.516 880.051 48.6505C881.396 48.7515 883.129 48.987 883.919 49.1889C885.231 49.4916 885.366 49.5085 885.517 49.2561L885.549 49.2034L885.568 49.171C885.672 48.9981 885.749 48.87 885.859 48.7842C886.173 48.5388 886.756 48.6381 889.006 49.0209L889.301 49.0711C891.101 49.3739 892.968 49.7776 893.456 49.9795C894.162 50.2655 894.532 50.3159 895.39 50.2318C896.971 50.0972 898.367 50.501 899.258 51.3589C899.931 51.9981 899.948 52.0318 899.544 52.0318C899.309 52.0318 898.518 51.8467 897.778 51.6449C895.693 51.0225 895.407 50.9888 895.07 51.3421C894.902 51.5103 894.599 51.7122 894.398 51.7626C894.179 51.8299 894.011 51.9477 894.011 52.015C894.011 52.0654 894.717 52.5028 895.592 52.957C896.803 53.5962 897.139 53.8486 897.005 54C896.904 54.1177 896.534 54.2187 896.18 54.2187C895.625 54.2187 895.457 54.3196 894.902 54.9756C894.549 55.3962 894.095 55.8672 893.876 56.0018C893.506 56.2541 893.506 56.2373 893.607 55.5644C893.674 55.1775 893.658 54.8915 893.557 54.8915C893.304 54.8915 891.538 55.884 891.32 56.1532C891.219 56.2709 891.151 56.5906 891.185 56.8597C891.219 57.2298 891.336 57.3475 891.791 57.4317C892.564 57.5831 893.102 58.155 893.304 58.9793C893.489 59.7531 893.372 62.9661 893.153 62.9661C893.086 62.9661 892.497 62.4951 891.858 61.94C890.966 61.1662 890.647 60.7624 890.563 60.3419C890.495 59.9213 890.361 59.7531 890.041 59.669C889.806 59.6017 889.385 59.2485 889.116 58.8784C888.477 58.0036 888.46 57.1457 889.066 56.4055C889.503 55.9009 889.503 55.8672 889.268 55.0093C888.982 54 888.578 53.8149 887.855 54.37C887.283 54.8242 886.812 54.8242 886.324 54.37L885.954 54L885.433 54.5551C885.08 54.9252 884.928 55.2616 884.928 55.6485C884.928 55.9513 884.794 56.355 884.642 56.5569C884.356 56.8765 884.289 56.8934 883.583 56.6747C882.691 56.4055 880.236 56.0186 879.344 56.0018C878.857 56.0018 878.571 56.1364 877.915 56.742C877.477 57.1457 877.006 57.7008 876.872 57.9868C876.653 58.5083 876.67 60.3082 876.905 60.5438C876.973 60.611 877.948 60.712 879.075 60.7793C880.219 60.8465 881.312 60.9811 881.497 61.0821C881.699 61.183 882.103 61.654 882.389 62.1082C882.691 62.5624 883.095 63.0502 883.314 63.1848C883.684 63.4371 883.7 63.5213 883.65 65.2708C883.6 66.8184 883.532 67.2389 883.162 68.0632L882.725 69.0221H881.884C880.757 69.0221 880.387 69.2408 880.387 69.88C880.387 70.166 880.236 70.5865 880.051 70.822C879.866 71.0575 879.714 71.5117 879.714 71.8145C879.714 72.4201 879.899 72.5884 881.733 73.8668C882.237 74.2201 882.674 74.6238 882.708 74.7584C882.742 74.9098 882.506 75.364 882.204 75.7677C881.211 77.063 880.051 76.8107 880.051 75.3135C880.051 74.607 880.034 74.5734 879.21 74.1528C878.739 73.9173 878.318 73.6313 878.285 73.5136C878.251 73.3958 878.184 73.093 878.133 72.8407C878.066 72.5715 877.847 72.3024 877.612 72.1846C877.292 72.0332 877.141 72.0669 876.754 72.3697C876.502 72.5547 876.216 72.7229 876.115 72.7229C875.913 72.7229 875.594 72.1005 875.409 71.3267C875.291 70.7884 875.123 70.7547 874.5 71.2089C873.962 71.5958 872.482 73.6313 872.482 73.9846C872.482 74.1023 872.617 74.2537 872.785 74.3042C873.205 74.4388 875.19 74.3883 875.61 74.2369C875.812 74.1528 876.014 74.136 876.081 74.1864C876.182 74.3042 875.745 75.2126 875.375 75.6331C875.139 75.9023 875.139 75.9864 875.392 76.4911C875.543 76.8107 876.165 77.6013 876.771 78.2406C878.486 80.0742 878.907 81.6386 878.133 83.3713C877.477 84.8685 876.687 85.6086 875.291 86.0292C873.895 86.4497 873.457 86.8703 872.398 88.8048C872.011 89.5282 871.607 90.1506 871.506 90.1842C871.389 90.2179 871.305 89.7973 871.271 88.9226L871.221 87.6105L870.48 87.2067L869.724 86.7862L869.101 87.5264C868.748 87.9301 868.328 88.5189 868.159 88.8385L867.857 89.3936L868.984 90.4366C870.077 91.4459 871.809 93.9524 871.809 94.5075C871.809 95.3318 870.245 97.3 869.101 97.8888C868.614 98.1411 868.58 98.1243 868.058 97.5691C866.007 95.4327 865.586 94.9617 865.586 94.8103C865.586 94.7094 865.468 94.5243 865.317 94.4066C865.081 94.2215 864.997 94.2384 864.728 94.5748C864.476 94.8776 864.409 95.2477 864.409 96.257C864.409 97.6028 864.291 98.2925 864.072 98.2925C863.786 98.2925 863.568 97.1486 863.585 95.7692C863.585 94.6757 863.5 94.087 863.198 93.2459C862.76 92.0347 862.424 91.816 861.819 92.3879C861.348 92.8253 861.045 92.5898 861.045 91.7655C861.045 91.0926 860.793 90.5543 860.473 90.5543C860.17 90.5543 859.279 89.5114 858.623 88.3675C858.051 87.3581 857.664 87.1058 856.319 86.8535C855.511 86.7021 855.377 86.7189 854.805 87.089C854.468 87.3245 853.829 87.9301 853.392 88.4347C852.904 88.9899 852.198 89.5618 851.592 89.8814C850.65 90.3861 850.55 90.5039 849.927 91.7823L849.271 93.1449L849.389 95.0458L849.49 96.9635L849.002 97.485C848.447 98.0738 847.455 98.5616 847.236 98.3429C847.034 98.1411 846.244 96.1056 846.244 95.786C846.244 95.6346 846.126 95.3654 845.992 95.1972C845.857 95.0122 845.739 94.743 845.739 94.6084C845.739 94.457 845.319 93.4309 844.797 92.3206C843.923 90.4366 843.872 90.2515 843.973 89.3768C844.057 88.5189 844.007 88.2497 843.435 87.2067C843.418 87.1731 843.2 87.3077 842.947 87.5095C842.342 87.9974 841.753 87.9637 841.316 87.4254C840.946 86.9712 840.542 86.5675 839.264 85.3731C838.204 84.3806 837.582 84.1956 834.773 84.0947L834.738 84.0934C832.35 84.0105 832.28 84.0081 831.544 83.5059C831.14 83.2199 830.77 82.8835 830.72 82.7489C830.652 82.5807 830.198 82.4797 829.172 82.3956C827.81 82.2779 827.642 82.2106 826.481 81.4704C825.808 81.0162 825.085 80.4274 824.866 80.1415C824.463 79.5863 824.21 79.6032 824.21 80.1751C824.21 80.8143 825.59 84.3974 825.96 84.7171C826.902 85.5245 826.935 85.5245 827.911 85.1544C828.516 84.9189 829.021 84.5657 829.475 84.061C830.215 83.2199 830.434 83.1358 830.434 83.7077C830.434 84.3638 831.376 85.6591 832.284 86.2142C832.755 86.5002 833.125 86.803 833.125 86.8871C833.125 86.9712 832.755 87.4422 832.317 87.9133C831.863 88.4011 831.325 89.074 831.123 89.4104C830.45 90.5375 828.802 91.8496 827.238 92.4889C826.447 92.8253 825.388 93.3468 824.883 93.6664C824.362 93.9692 823.605 94.3225 823.168 94.4234C821.805 94.7767 821.015 94.0533 820.746 92.2029C820.628 91.4627 819.753 89.8983 818.643 88.5357C817.853 87.56 817.449 86.8535 816.894 85.5077C816.474 84.4816 815.347 82.7657 814.489 81.8573C814.186 81.5377 814.001 81.4704 813.665 81.5545C813.345 81.6218 813.127 81.5545 812.841 81.2854C812.286 80.7639 812.336 80.9321 813.194 82.5302C813.614 83.304 814.253 84.6834 814.64 85.6086C815.935 88.7039 816.12 89.1076 816.507 89.7637C816.726 90.1338 817.315 90.9076 817.853 91.4795C819.198 92.9767 820.275 94.6926 820.51 95.7523L820.729 96.6439L822.007 96.5262C822.714 96.4589 823.756 96.4084 824.328 96.4252C824.917 96.4421 825.707 96.3411 826.162 96.1897C826.599 96.0383 826.986 95.9542 827.019 96.0047C827.053 96.0383 826.935 96.6944 826.733 97.4514C826.431 98.6121 826.178 99.1168 825.085 100.698C824.379 101.741 823.369 103.003 822.848 103.507C822.327 104.012 821.301 105.206 820.577 106.165C819.837 107.124 818.929 108.318 818.542 108.84C817.668 109.967 817.634 110.388 818.256 112.625C818.862 114.778 819.03 116.797 818.727 117.907C818.509 118.647 818.357 118.849 817.584 119.387C817.079 119.724 816.356 120.329 815.969 120.716C814.893 121.793 814.119 123.627 814.623 123.946C814.876 124.098 814.842 125.881 814.59 125.881C814.119 125.881 813.059 127.176 812.403 128.522C811.916 129.531 811.579 130.002 811.243 130.187C810.974 130.322 810.755 130.49 810.755 130.574C810.755 130.81 807.778 133.467 807.442 133.535C807.273 133.568 806.769 133.753 806.332 133.938C805.877 134.14 805.171 134.292 804.767 134.292C804.364 134.292 803.876 134.376 803.708 134.477C802.884 134.998 802.009 134.056 801.757 132.357C801.622 131.348 801.185 130.456 800.428 129.615C799.839 128.959 799.738 128.623 799.503 126.469C799.419 125.729 799.234 124.855 799.099 124.535L799.082 124.495L799.082 124.495L799.082 124.494C798.939 124.155 798.636 123.434 798.41 122.853C798.174 122.247 797.737 121.423 797.468 121.002C797.014 120.329 796.98 120.161 797.081 119.32C797.131 118.731 797.384 118.008 797.77 117.318C798.46 116.073 798.729 114.913 798.443 114.391C798.342 114.189 798.241 113.516 798.225 112.911C798.191 112.087 798.09 111.649 797.855 111.313C797.653 111.044 797.384 110.455 797.232 110.001C796.845 108.84 796.677 108.588 795.735 107.578L794.878 106.687L795.113 105.896C795.483 104.618 795.5 103.339 795.163 102.666C794.81 101.993 793.902 101.472 793.246 101.606C792.893 101.674 792.708 101.573 792.271 101.018C791.85 100.479 791.581 100.294 790.925 100.16C790.05 99.9747 788.991 100.042 788.251 100.328C787.174 100.749 785.425 101.169 785.072 101.085C784.853 101.018 784.416 101.135 784.012 101.337C783.457 101.623 783.138 101.691 782.347 101.606C781.809 101.573 781.136 101.405 780.85 101.253C779.824 100.715 778.327 99.0999 777.57 97.7037C777.049 96.7449 776.612 96.1897 776.057 95.7692C775.333 95.2309 775.266 95.1299 775.266 94.4571C775.266 94.0701 775.182 93.6159 775.081 93.4477C774.93 93.1954 774.98 92.9094 775.317 92.0515C775.788 90.8908 775.872 89.9319 775.67 88.317L775.655 88.1846C775.627 87.9436 775.606 87.769 775.613 87.5954C775.63 87.1383 775.832 86.6881 776.565 85.0524L776.662 84.8348C776.881 84.3302 777.688 83.4049 779 82.0928C780.547 80.562 780.985 80.0237 780.985 79.6704C780.985 78.8293 781.489 78.0219 782.263 77.6013C782.684 77.3826 783.272 76.8612 783.609 76.3901C784.197 75.6163 784.231 75.5827 784.534 75.8518C784.752 76.0537 784.971 76.0873 785.307 76.0032C785.56 75.9191 786.417 75.8518 787.208 75.835C788.251 75.835 788.755 75.7509 789.075 75.5322C789.361 75.3472 790.151 75.179 791.345 75.0612C792.355 74.9603 793.767 74.7248 794.491 74.5565C796.173 74.136 796.425 74.2874 795.87 75.3472C795.735 75.6163 795.618 76.121 795.618 76.4743C795.618 77.0294 795.685 77.1471 796.105 77.3154C796.374 77.4331 796.761 77.7359 796.963 77.9714C797.249 78.3415 797.417 78.4088 797.787 78.3415C798.275 78.2406 799.234 78.6443 800.243 79.3508C800.546 79.5695 801.118 79.7377 801.673 79.7882L802.598 79.8723L802.984 79.1658C803.186 78.7789 803.354 78.2406 803.354 77.9882C803.371 77.5845 803.388 77.5509 803.573 77.7696C803.842 78.1228 805.491 78.8966 806.214 79.0312C807.66 79.2835 812.454 79.5022 812.841 79.3172C813.665 78.9471 814.825 75.9528 814.438 75.2126L814.423 75.1827C814.404 75.1465 814.388 75.1151 814.367 75.0877C814.226 74.906 813.859 74.8996 811.065 74.8509L810.587 74.8425C809.325 74.8257 808.821 74.6406 807.929 73.9341C807.593 73.665 807.542 73.4799 807.509 72.336C807.492 70.8725 807.391 70.7884 806.399 71.394C805.928 71.68 805.743 71.7136 805.423 71.5622C804.818 71.293 804.7 71.3267 804.7 71.8482C804.7 72.1342 804.868 72.4874 805.121 72.7229C805.608 73.1771 805.659 73.3958 805.289 73.3958C805.137 73.3958 804.986 73.5977 804.935 73.9005C804.851 74.2706 804.734 74.4051 804.465 74.4051C804.061 74.4051 803.607 73.8836 803.052 72.7902C802.867 72.4201 802.598 72.0164 802.463 71.8986C802.312 71.7977 802.16 71.3267 802.093 70.8557C801.975 70.0146 801.689 69.695 801.084 69.695C800.932 69.695 800.411 69.3585 799.94 68.9716C797.972 67.3062 796.812 66.8352 797.047 67.7941C797.199 68.4165 798.376 69.6277 799.318 70.1155C800.159 70.5529 801.454 71.7977 801.218 71.9323C801.134 71.9828 800.966 71.9659 800.832 71.865C800.428 71.6295 800.327 71.68 800.327 72.1846C800.327 72.5211 800.108 72.8743 799.57 73.3958C798.847 74.1023 798.813 74.1192 798.359 73.9005L797.888 73.665L798.426 73.5977C798.931 73.5472 799.822 72.7734 799.822 72.3865C799.822 72.1342 797.737 70.351 797.316 70.2501C796.593 70.065 795.819 69.5267 795.483 68.9716C795.281 68.6183 795.046 68.4333 794.76 68.4165C794.541 68.4165 794.238 68.3828 794.104 68.3324C793.919 68.2819 793.835 68.4165 793.801 68.837L793.751 69.3922L792.741 69.2912C791.581 69.1566 791.245 69.2912 790.74 70.1155C790.538 70.4519 790.084 70.8557 789.748 71.0407C788.923 71.4613 788.705 71.7304 788.604 72.5715C788.52 73.1267 788.385 73.3453 787.898 73.6818C786.216 74.8089 785.963 74.9434 785.543 74.8425C785.359 74.8031 784.878 74.7125 784.38 74.6187L783.962 74.5397C782.347 74.2706 782.28 74.136 782.431 71.6295C782.532 69.9136 782.599 69.594 782.936 69.1903C783.306 68.7697 783.39 68.7361 784.164 68.8707C784.618 68.938 785.223 69.123 785.509 69.2576C786.148 69.594 786.518 69.594 787.157 69.2744C787.696 69.0052 787.965 68.6015 787.78 68.3324C787.729 68.2483 787.763 68.0632 787.847 67.9118C788.032 67.5754 787.612 67.0202 786.367 66.0109L785.946 65.6745L786.922 65.6577C787.443 65.6577 787.881 65.5904 787.881 65.5231C787.881 65.439 787.612 65.2539 787.275 65.1025C786.552 64.7493 786.602 64.396 787.393 64.3792C788.15 64.3455 789.243 64.1437 789.613 63.9418C789.781 63.8577 790.185 63.4876 790.521 63.1175C790.858 62.7474 791.211 62.4783 791.312 62.5119C791.648 62.6465 792.086 62.2932 792.086 61.8895C792.086 61.469 792.657 61.1157 793.33 61.1157C793.549 61.1157 793.986 60.8465 794.322 60.5269C794.978 59.8877 795.281 59.7868 795.281 60.2073C795.281 60.426 795.382 60.4596 795.836 60.3587C797.316 60.0559 797.787 60.0727 798.241 60.426C798.796 60.8634 798.897 60.8634 799.436 60.4428C799.755 60.1905 800.125 60.1064 800.882 60.1064C802.127 60.1064 802.682 59.7026 802.682 58.8279C802.682 58.155 802.85 58.0373 803.439 58.2559C804.179 58.5419 804.414 58.2055 804.28 57.112C804.179 56.2373 804.179 56.2205 804.515 56.3887C805.524 56.9438 807.122 56.0859 806.332 55.413C806.18 55.2953 805.743 55.2784 804.935 55.3794C803.59 55.5476 803.472 55.5139 803.102 54.9588C802.85 54.5551 802.867 54.5046 803.455 53.5458C803.96 52.7215 804.044 52.5028 803.859 52.2841C803.539 51.8972 803.169 51.9813 801.992 52.6878C801.101 53.2261 800.882 53.4448 800.714 53.9831C800.445 54.9084 800.445 55.5812 800.764 55.9177C801 56.1868 801 56.2541 800.731 56.6579C800.579 56.8934 800.327 57.3476 800.176 57.6335C800.024 57.9363 799.553 58.4073 799.099 58.7101C798.342 59.2148 798.275 59.2316 797.754 59.0129C797.367 58.8447 797.182 58.6429 797.115 58.2559C796.984 57.6013 796.98 57.5995 795.493 56.8254L795.365 56.7588L794.02 56.0691L793.667 56.5064L793.313 56.9438L793.212 56.5401C793.044 55.9681 793.078 55.1439 793.246 54.6728C793.381 54.3532 793.549 54.2523 794.171 54.185C795.079 54.0841 795.449 53.8149 795.449 53.2934C795.449 53.0243 795.735 52.6542 796.341 52.1495C797.501 51.1739 799.671 49.5589 800.899 48.7346L801.891 48.0786L803.708 48.1122C805.625 48.1627 809.157 48.701 809.998 49.0879C810.284 49.2057 810.89 49.4075 811.344 49.5253C812.841 49.8785 813.093 50.1814 812.437 50.7701C812.201 50.9888 811.983 51.0393 811.562 50.9383C810.705 50.7533 809.409 50.7869 809.191 51.0056C809.039 51.1739 809.107 51.3084 809.51 51.6617C809.74 51.8639 810.131 52.1959 810.45 52.467L810.671 52.6542C811.024 52.957 811.394 53.2093 811.512 53.2093C811.613 53.2093 812.319 52.7215 813.076 52.1327C814.102 51.3252 814.808 50.9215 815.919 50.5346C816.726 50.2318 817.483 49.9122 817.6 49.8113C817.903 49.5758 819.097 49.5758 819.4 49.8281C819.568 49.9627 819.753 49.9795 820.09 49.8449C820.342 49.744 820.695 49.7103 820.863 49.7608C821.065 49.8281 821.402 49.6935 821.805 49.3571C822.73 48.6337 823.201 48.5496 823.689 49.0711C824.227 49.643 826.212 50.2486 827.036 50.0972C827.894 49.9458 828.701 49.172 828.012 49.172C827.608 49.172 826.532 47.6917 826.498 47.1029C826.481 46.6319 826.532 46.5646 826.969 46.5141C827.238 46.4805 827.776 46.5814 828.18 46.7328C829.139 47.0861 829.609 47.8935 829.744 49.3402C829.828 50.3327 829.879 50.4337 830.249 50.4841C830.854 50.5683 831.443 50.3664 831.443 50.0804C831.443 49.929 831.224 49.3402 830.955 48.7683C830.686 48.2132 830.417 47.5571 830.35 47.3216L830.249 46.901L830.551 47.3216C830.72 47.5403 831.09 48.0786 831.359 48.4991C831.947 49.3907 832.452 49.5421 832.772 48.9365C832.957 48.6001 832.957 48.3982 832.721 47.7253C832.57 47.288 832.452 46.8001 832.452 46.6655C832.452 46.3459 833.797 46.0095 836.001 45.8076C837.666 45.6394 838.541 45.3198 839.281 44.6132C839.634 44.2768 839.937 44.1254 840.122 44.1759ZM875.762 101.909C876.064 101.842 876.569 101.472 877.023 100.984C877.444 100.53 877.864 100.16 877.982 100.16C878.083 100.143 878.402 100.345 878.688 100.58C879.277 101.068 879.378 101.775 878.957 102.498C878.638 103.036 878.638 103.524 878.957 104.113C879.294 104.769 879.277 104.971 878.873 105.189C878.655 105.307 878.537 105.543 878.537 105.862C878.537 106.199 878.402 106.451 878.116 106.636C877.881 106.788 877.629 107.191 877.528 107.561C877.343 108.251 876.872 108.52 876.216 108.318C876.031 108.251 875.375 108.201 874.769 108.201C873.727 108.184 873.626 108.15 873.256 107.662C872.701 106.922 872.28 105.576 872.415 104.988C872.516 104.517 872.549 104.5 873.172 104.601C873.727 104.702 873.828 104.668 873.828 104.416C873.828 104.247 873.945 103.995 874.08 103.861C874.214 103.709 874.416 103.289 874.534 102.935C874.769 102.229 874.954 102.077 875.762 101.909ZM862.088 101.438C862.239 101.606 862.491 102.01 862.643 102.33C862.811 102.649 863.231 103.255 863.568 103.675C863.904 104.096 864.325 104.702 864.493 105.021C865.216 106.434 867.924 110.337 868.328 110.556C868.748 110.774 868.815 110.774 869.202 110.404C869.455 110.169 869.623 109.816 869.623 109.563C869.623 109.092 868.967 107.746 868.445 107.124C868.294 106.939 867.974 106.451 867.739 106.031C867.033 104.803 866.124 103.844 865.653 103.844C865.267 103.844 864.442 103.12 863.4 101.859C863.147 101.556 862.76 101.32 862.407 101.253C861.869 101.152 861.852 101.169 862.088 101.438ZM889.301 106.35C889.301 106.283 889.554 106.182 889.856 106.148C889.947 106.138 890.043 106.125 890.135 106.113L890.135 106.113C890.334 106.088 890.516 106.064 890.596 106.064C890.866 106.031 891.151 106.569 891.151 107.074C891.151 107.578 891.925 108.722 892.262 108.722C892.766 108.722 893.54 108.184 893.708 107.696C893.843 107.326 893.977 107.208 894.33 107.208C894.583 107.208 894.852 107.275 894.953 107.36C895.037 107.444 895.693 107.713 896.399 107.948C897.122 108.201 897.947 108.537 898.249 108.705C898.552 108.89 899.107 109.109 899.477 109.21C900.015 109.345 900.268 109.563 900.705 110.236C901.008 110.69 901.327 111.077 901.411 111.077C901.664 111.077 901.613 111.346 901.344 111.632C901.125 111.851 901.26 112.019 902.488 112.978C904.456 114.543 904.506 114.61 903.48 114.61C902.555 114.61 901.731 114.156 900.251 112.827C899.797 112.423 899.393 112.087 899.326 112.087C899.275 112.087 898.989 112.305 898.687 112.574C898.165 113.029 898.081 113.045 897.139 112.911C896.517 112.827 896.029 112.658 895.794 112.44C895.575 112.238 895.239 112.103 895.003 112.12C894.616 112.171 894.599 112.137 894.65 111.33C894.7 110.539 894.667 110.455 894.129 110.034C893.405 109.479 892.632 109.143 891.421 108.89C890.344 108.672 889.89 108.184 890.411 107.814C890.664 107.612 890.63 107.545 889.991 107.04C889.621 106.737 889.301 106.417 889.301 106.35ZM896.887 116.41C896.786 117.015 896.416 118.025 896.096 118.681C895.121 120.632 894.246 120.649 892.262 118.782C891.757 118.311 891.757 118.294 891.959 117.419C891.977 117.344 891.994 117.272 892.011 117.204C892.179 116.509 892.259 116.178 892.129 116.005C892.011 115.849 891.721 115.822 891.169 115.771C891.11 115.766 891.048 115.76 890.983 115.754C889.503 115.619 888.847 115.855 888.174 116.729C887.939 117.049 887.603 117.301 887.434 117.301C887.132 117.301 887.031 117.604 887.081 118.344C887.115 118.698 887.098 118.698 886.257 118.462C885.82 118.328 885.601 118.143 885.517 117.857C885.467 117.638 885.315 117.419 885.181 117.352C884.76 117.2 883.919 117.655 883.65 118.159C883.516 118.428 883.213 118.765 882.994 118.916C882.742 119.085 882.574 119.354 882.574 119.589C882.574 120.128 882.305 120.228 882.019 119.825L881.783 119.471L881.531 119.858C881.396 120.077 881.211 120.43 881.144 120.666C881.077 120.901 880.925 121.187 880.824 121.322C880.555 121.658 878.285 122.684 877.141 122.97C876.603 123.105 875.795 123.475 875.341 123.778C874.887 124.081 874.433 124.367 874.332 124.4C873.962 124.518 873.575 128 873.626 130.725C873.676 133.451 873.609 133.955 873.222 133.955C873.088 133.955 872.987 134.023 872.987 134.09C872.987 134.359 873.407 134.628 873.844 134.628C874.349 134.628 876.266 134.208 876.939 133.955C877.175 133.871 877.713 133.77 878.116 133.753C878.604 133.737 878.974 133.619 879.142 133.417C879.311 133.249 879.613 133.114 879.849 133.114C880.438 133.114 881.581 132.761 882.069 132.441C882.372 132.239 882.977 132.122 884.155 132.071L885.82 131.987L886.509 132.643C887.064 133.165 887.182 133.4 887.148 133.787C887.064 134.46 887.401 134.443 888.763 133.72C889.335 133.4 889.806 133.215 889.806 133.299C889.806 133.383 889.688 133.753 889.537 134.107C889.285 134.746 889.285 134.813 889.604 135.217C889.856 135.537 889.907 135.806 889.856 136.361C889.772 137.017 889.823 137.135 890.327 137.555C890.714 137.892 890.966 137.993 891.219 137.908C891.824 137.707 892.732 137.808 892.951 138.11C893.136 138.363 893.338 138.295 894.919 137.522C896.315 136.849 896.921 136.428 897.846 135.52L897.985 135.384L897.985 135.384C898.593 134.791 899.281 134.121 899.578 133.871C900.52 133.047 901.966 131.062 902.101 130.423C902.168 130.103 902.353 129.497 902.505 129.077C902.706 128.555 902.757 128 902.706 127.226C902.572 125.393 902.454 125.073 901.849 124.871C901.26 124.686 900.789 124.03 900.402 122.853C900.234 122.348 899.965 121.978 899.561 121.709C898.989 121.322 898.972 121.288 899.023 120.363C899.09 119.371 898.653 117.857 898.047 116.965C897.896 116.729 897.677 116.292 897.543 115.989C897.425 115.686 897.274 115.417 897.206 115.367C897.139 115.333 897.005 115.787 896.887 116.41ZM823.235 118.647C824.732 117.907 825.556 117.133 825.556 116.477C825.556 116.292 825.606 116.275 825.741 116.41C826.044 116.713 826.128 118.21 825.892 119.37C825.674 120.498 825.304 121.507 824.513 123.105C824.21 123.727 823.992 124.501 823.925 125.157C823.824 126.167 823.79 126.234 823.252 126.503C822.932 126.638 822.444 126.823 822.142 126.873C821.671 126.974 821.553 126.924 821.25 126.486C820.779 125.797 820.594 123.963 820.964 123.61C821.099 123.475 821.267 123.357 821.351 123.357C821.671 123.357 821.906 122.079 821.805 120.767L821.721 119.404L823.235 118.647Z" fill="#01737E"/>
<path d="M501 0C454.131 0 416 38.1309 416 85C416 131.869 454.131 170 501 170C501.005 170 501.009 170 501.011 170C501.013 170 501.014 170 501.015 170C547.877 169.991 586 131.864 586 85C586 38.1309 547.869 0 501 0ZM501.001 29.6304C509.747 29.6304 516.863 36.7463 516.863 45.493C516.863 54.2397 509.747 61.3557 501.001 61.3557C492.254 61.3557 485.138 54.2397 485.138 45.493C485.138 36.7458 492.254 29.6304 501.001 29.6304ZM501 158.028C482.516 158.028 467.479 142.991 467.479 124.507C467.479 106.023 482.516 90.9855 501 90.9855C526.084 90.9855 546.493 70.5775 546.493 45.4925C546.493 37.7148 544.527 30.3894 541.073 23.9803C560.909 37.0503 574.028 59.52 574.028 84.9994C574.028 125.268 541.268 158.028 501 158.028Z" fill="#01737E"/>
<path d="M501.17 141.27C492.078 141.27 484.68 133.873 484.68 124.78C484.68 115.688 492.078 108.29 501.17 108.29C510.263 108.29 517.66 115.688 517.66 124.78C517.66 133.873 510.263 141.27 501.17 141.27Z" fill="#01737E"/>
</svg>
