<svg width="40" height="39" viewBox="0 0 40 39" fill="none" xmlns="http://www.w3.org/2000/svg">
<path d="M20 0C8.95161 0 0 8.59336 0 19.1996C0 29.8058 8.95161 38.3992 20 38.3992C31.0484 38.3992 40 29.8058 40 19.1996C40 8.59336 31.0484 0 20 0ZM29.8065 24.2395C30.1855 24.6033 30.1855 25.1917 29.8065 25.5556L26.6129 28.6136C26.2339 28.9774 25.621 28.9774 25.2419 28.6136L20 23.535L14.75 28.6136C14.371 28.9774 13.7581 28.9774 13.379 28.6136L10.1935 25.5478C9.81452 25.184 9.81452 24.5956 10.1935 24.2317L15.4839 19.1996L10.1935 14.1597C9.81452 13.7958 9.81452 13.2075 10.1935 12.8436L13.3871 9.77786C13.7661 9.41399 14.379 9.41399 14.7581 9.77786L20 14.8642L25.25 9.7856C25.629 9.42173 26.2419 9.42173 26.621 9.7856L29.8145 12.8513C30.1935 13.2152 30.1935 13.8036 29.8145 14.1674L24.5161 19.1996L29.8065 24.2395Z" fill="#01737E"/>
</svg>
