<svg width="56" height="80" viewBox="0 0 56 80" fill="none" xmlns="http://www.w3.org/2000/svg">
<path d="M42.778 0H4.64536C2.08496 0 0 2.20305 0 4.90606V75.0933C0 77.8004 2.08496 80 4.64536 80H51.3543C53.917 80 56 77.8004 56 75.0933V15.1699L42.778 0ZM43.8744 7.34133L49.6698 13.9919H43.8744V7.34133ZM52.0985 75.0934C52.0985 75.5256 51.7634 75.8804 51.3522 75.8804H4.64536C4.23481 75.8804 3.9017 75.5256 3.9017 75.0934V4.90606C3.9017 4.4729 4.23481 4.12185 4.64536 4.12185H39.9707V16.0527C39.9707 17.1886 40.8471 18.1095 41.9235 18.1095H52.0985V75.0934ZM10.7843 21.9115H43.9161C44.7232 21.9115 45.3778 22.6027 45.3778 23.4549C45.3778 24.3071 44.7232 24.9983 43.9161 24.9983H10.7843C9.97739 24.9983 9.3226 24.3071 9.3226 23.4549C9.3226 22.6028 9.97739 21.9115 10.7843 21.9115ZM45.3778 33.8268C45.3778 34.6789 44.7232 35.3703 43.9161 35.3703H10.7843C9.97739 35.3703 9.3226 34.6791 9.3226 33.8268C9.3226 32.9746 9.97739 32.2834 10.7843 32.2834H43.9161C44.7232 32.2834 45.3778 32.9748 45.3778 33.8268ZM45.3778 43.8591C45.3778 44.7113 44.7232 45.4026 43.9161 45.4026H10.7843C9.97739 45.4026 9.3226 44.7113 9.3226 43.8591C9.3226 43.0069 9.97739 42.3157 10.7843 42.3157H43.9161C44.7232 42.3157 45.3778 43.0069 45.3778 43.8591ZM45.3778 54.0622C45.3778 54.9145 44.7232 55.6057 43.9161 55.6057H10.7843C9.97739 55.6057 9.3226 54.9145 9.3226 54.0622C9.3226 53.21 9.97739 52.5188 10.7843 52.5188H43.9161C44.7232 52.5188 45.3778 53.21 45.3778 54.0622Z" fill="white"/>
</svg>
