<svg width="120" height="120" viewBox="0 0 120 120" fill="none" xmlns="http://www.w3.org/2000/svg">
<g filter="url(#filter0_d)">
<path d="M60 15C37.9032 15 20 32.9032 20 55C20 77.0968 37.9032 95 60 95C82.0968 95 100 77.0968 100 55C100 32.9032 82.0968 15 60 15ZM69.2097 71.4677L54.9839 61.129C54.4839 60.7581 54.1935 60.1774 54.1935 59.5645V32.4194C54.1935 31.3548 55.0645 30.4839 56.129 30.4839H63.871C64.9355 30.4839 65.8064 31.3548 65.8064 32.4194V54.629L76.0484 62.0806C76.9194 62.7097 77.0968 63.9194 76.4677 64.7903L71.9194 71.0484C71.2903 71.9032 70.0806 72.0968 69.2097 71.4677Z" fill="#01737E"/>
</g>
<defs>
<filter id="filter0_d" x="0" y="0" width="120" height="120" filterUnits="userSpaceOnUse" color-interpolation-filters="sRGB">
<feFlood flood-opacity="0" result="BackgroundImageFix"/>
<feColorMatrix in="SourceAlpha" type="matrix" values="0 0 0 0 0 0 0 0 0 0 0 0 0 0 0 0 0 0 127 0"/>
<feOffset dy="5"/>
<feGaussianBlur stdDeviation="10"/>
<feColorMatrix type="matrix" values="0 0 0 0 0 0 0 0 0 0 0 0 0 0 0 0 0 0 0.2 0"/>
<feBlend mode="normal" in2="BackgroundImageFix" result="effect1_dropShadow"/>
<feBlend mode="normal" in="SourceGraphic" in2="effect1_dropShadow" result="shape"/>
</filter>
</defs>
</svg>
