<svg width="130" height="117" viewBox="0 0 130 117" fill="none" xmlns="http://www.w3.org/2000/svg">
<g filter="url(#filter0_d)">
<path d="M65 15C54.1266 15 45.3125 23.3903 45.3125 33.741C45.3125 42.109 58.1797 57.3606 63.1094 62.8966C64.1078 64.0181 65.8937 64.0181 66.8906 62.8966C71.8203 57.3606 84.6875 42.109 84.6875 33.741C84.6875 23.3903 75.8734 15 65 15ZM65 39.988C61.375 39.988 58.4375 37.1917 58.4375 33.741C58.4375 30.2903 61.375 27.494 65 27.494C68.625 27.494 71.5625 30.2903 71.5625 33.741C71.5625 37.1917 68.625 39.988 65 39.988ZM23.1438 47.12C22.2159 47.4732 21.4205 48.083 20.8602 48.8707C20.2998 49.6583 20.0002 50.5877 20 51.539V88.7711C20 90.4548 21.7859 91.606 23.4281 90.9813L45 81.6346V46.9668C43.6187 44.5899 42.4891 42.2756 41.6797 40.0623L23.1438 47.12ZM65 68.4966C62.8016 68.4966 60.7219 67.5774 59.2953 65.974C56.2234 62.5233 52.9562 58.5936 50 54.5628V81.6331L80 91.1524V54.5643C77.0438 58.5936 73.7781 62.5248 70.7047 65.9755C69.2781 67.5774 67.1984 68.4966 65 68.4966ZM106.572 38.9706L85 48.3173V91.1538L106.856 82.832C107.784 82.4789 108.58 81.8691 109.14 81.0814C109.7 80.2937 110 79.3643 110 78.413V41.1809C110 39.4971 108.214 38.3459 106.572 38.9706Z" fill="#01737E"/>
</g>
<defs>
<filter id="filter0_d" x="0" y="0" width="130" height="116.154" filterUnits="userSpaceOnUse" color-interpolation-filters="sRGB">
<feFlood flood-opacity="0" result="BackgroundImageFix"/>
<feColorMatrix in="SourceAlpha" type="matrix" values="0 0 0 0 0 0 0 0 0 0 0 0 0 0 0 0 0 0 127 0"/>
<feOffset dy="5"/>
<feGaussianBlur stdDeviation="10"/>
<feColorMatrix type="matrix" values="0 0 0 0 0 0 0 0 0 0 0 0 0 0 0 0 0 0 0.2 0"/>
<feBlend mode="normal" in2="BackgroundImageFix" result="effect1_dropShadow"/>
<feBlend mode="normal" in="SourceGraphic" in2="effect1_dropShadow" result="shape"/>
</filter>
</defs>
</svg>
