<svg id="Layer_1" enable-background="new 0 0 512.897 512.897" height="512" viewBox="0 0 512.897 512.897" width="512" xmlns="http://www.w3.org/2000/svg"><path d="m486.448 256.448c0-18.891-2.289-37.257-6.605-54.835 101.516-116.085-52.592-270.036-168.559-168.56-34.903-8.766-74.767-8.766-109.67 0-116.085-101.515-270.037 52.593-168.561 168.56-8.767 34.903-8.767 74.768 0 109.671-101.514 116.086 52.593 270.035 168.56 168.56 34.903 8.766 74.767 8.766 109.67 0 116.085 101.516 270.035-52.594 168.559-168.56 4.317-17.579 6.606-35.945 6.606-54.836zm-141.013 190.201-26.656-64.856c27.221-13.591 49.422-35.793 63.014-63.014l64.856 26.657c-20.857 44.4-56.814 80.357-101.214 101.213zm-279.188-101.214 64.856-26.657c13.591 27.221 35.793 49.424 63.015 63.015l-26.657 64.856c-44.4-20.857-80.357-56.814-101.214-101.214zm101.214-279.187 26.657 64.856c-27.221 13.591-49.423 35.793-63.014 63.014l-64.856-26.657c20.856-44.4 56.813-80.357 101.213-101.213zm-121.013 190.2c0-24.719 4.293-48.454 12.173-70.499l64.857 26.657c-9.315 27.33-9.315 60.353 0 87.683l-64.857 26.657c-7.88-22.044-12.173-45.779-12.173-70.498zm90 0c0-66.168 53.832-120 120.001-120 158.976 6.033 158.933 233.991-.002 240-66.167 0-119.999-53.832-119.999-120zm310.201-88.986-64.856 26.657c-13.591-27.221-35.793-49.424-63.014-63.015l26.657-64.856c44.4 20.856 80.356 56.813 101.213 101.214zm7.626 159.485-64.857-26.657c9.315-27.329 9.315-60.353 0-87.682l64.857-26.657c16.124 43.637 16.124 97.358 0 140.996zm-61.063-306.5c80.701-.604 128.183 93.963 79.727 158.294-23.192-64.417-74.366-115.591-138.783-138.783 16.981-12.524 37.824-19.511 59.056-19.511zm-66.265 38.174-26.657 64.857c-27.33-9.315-60.353-9.315-87.682 0l-26.658-64.857c43.637-16.123 97.359-16.123 140.997 0zm-306.5 61.065c-.605-80.701 93.965-128.185 158.294-79.728-64.417 23.192-115.592 74.366-138.784 138.783-12.524-16.982-19.51-37.824-19.51-59.055zm99.238 372.763c-80.701.604-128.182-93.962-79.728-158.293 23.192 64.417 74.367 115.591 138.784 138.783-16.981 12.524-37.824 19.51-59.056 19.51zm66.265-38.173 26.658-64.856c27.33 9.315 60.353 9.315 87.682 0l26.657 64.857c-43.638 16.122-97.36 16.122-140.997-.001zm306.499-61.065c.605 80.701-93.963 128.185-158.293 79.728 64.417-23.192 115.591-74.367 138.783-138.784 12.524 16.982 19.51 37.825 19.51 59.056z"/></svg>