<svg id="Capa_1" enable-background="new 0 0 512 512" height="512" viewBox="0 0 512 512" width="512" xmlns="http://www.w3.org/2000/svg"><g><path d="m390.748 339.608c38.052-35.874 61.847-86.714 61.847-143.013 0-44.811-14.685-87.017-42.468-122.055-26.95-33.988-64.851-58.416-106.721-68.784-5.358-1.325-10.783 1.942-12.111 7.303-1.327 5.361 1.942 10.783 7.303 12.11 78.895 19.537 133.996 90.03 133.996 171.425 0 97.375-79.22 176.595-176.595 176.595s-176.594-79.219-176.594-176.594c0-81.395 55.101-151.888 133.995-171.425 5.361-1.327 8.63-6.749 7.303-12.11s-6.748-8.632-12.11-7.303c-41.87 10.369-79.771 34.797-106.72 68.785-27.783 35.038-42.468 77.244-42.468 122.054 0 56.299 23.795 107.14 61.847 143.013l-52.354 100.127c-2.553 4.883-.675 10.911 4.199 13.48l.36.19c2.237 1.179 4.835 1.465 7.276.806l72.558-19.644 25.282 70.795c1.336 3.741 4.761 6.337 8.724 6.613.233.016.465.024.696.024 3.702 0 7.126-2.053 8.859-5.366l59.148-113.121 59.148 113.12c1.733 3.314 5.157 5.367 8.859 5.366.23 0 .463-.008.696-.024 3.963-.275 7.388-2.872 8.724-6.613l25.282-70.795 72.558 19.644c2.44.662 5.04.373 7.276-.806l.36-.19c4.874-2.569 6.751-8.597 4.199-13.48zm-201.028 137.502-20.703-57.973c-1.755-4.915-6.994-7.653-12.031-6.289l-59.946 16.23 39.841-76.197c27.639 21.117 61.016 35.077 97.351 39.098zm165.293-64.262c-5.036-1.363-10.276 1.375-12.031 6.289l-20.702 57.973-44.513-85.131c36.335-4.021 69.712-17.981 97.351-39.098l39.841 76.197z"/><path d="m109.405 196.595c0 80.832 65.762 146.595 146.595 146.595s146.595-65.762 146.595-146.595-65.763-146.595-146.595-146.595-146.595 65.762-146.595 146.595zm273.19 0c0 69.805-56.79 126.595-126.595 126.595s-126.595-56.79-126.595-126.595 56.79-126.595 126.595-126.595 126.595 56.79 126.595 126.595z"/><path d="m240.902 133.123-12.371 23.904c-1.444 2.79-4.156 4.76-7.254 5.271l-26.558 4.379c-6.295 1.038-11.43 5.452-13.402 11.52s-.412 12.658 4.071 17.198l18.912 19.152c2.206 2.235 3.243 5.423 2.77 8.528l-4.042 26.611c-.958 6.308 1.653 12.556 6.814 16.307 5.162 3.75 11.911 4.302 17.615 1.442l24.06-12.067c2.806-1.408 6.158-1.409 8.966 0l24.059 12.067c2.423 1.215 5.034 1.814 7.632 1.814 3.518 0 7.013-1.099 9.982-3.256 5.162-3.751 7.773-9.999 6.815-16.306l-4.042-26.611c-.472-3.105.564-6.294 2.771-8.528l18.912-19.152c4.483-4.54 6.043-11.13 4.071-17.198s-7.107-10.482-13.402-11.52l-26.557-4.379c-3.1-.511-5.811-2.481-7.255-5.271l-12.371-23.904c-2.933-5.667-8.718-9.187-15.098-9.187-6.381-.001-12.166 3.519-15.098 9.186zm46.568 48.909 20.837 3.436-14.839 15.028c-6.62 6.705-9.728 16.269-8.313 25.583l3.171 20.88-18.877-9.468c-4.212-2.113-8.831-3.169-13.451-3.169-4.619 0-9.24 1.057-13.45 3.169l-18.877 9.468 3.171-20.879c1.415-9.315-1.692-18.879-8.313-25.585l-14.839-15.027 20.838-3.436c9.296-1.533 17.431-7.444 21.763-15.812l9.709-18.756 9.707 18.756c4.33 8.367 12.466 14.279 21.763 15.812z"/><circle cx="256" cy="10" r="10"/></g></svg>